<svg width="370" height="108" viewBox="0 0 370 108" fill="none" xmlns="http://www.w3.org/2000/svg">
    <path
    d="M225.641 77.5637H213.518V48.7218C213.518 43.1922 211.055 40.4274 206.13 40.4274C201.71 40.4274 198.426 42.5324 196.279 46.7425V77.5637H184.155V43.5378C184.155 37.5684 182.608 34.2066 179.514 33.4526V32.0388H195.332L195.521 37.317C198.868 33.107 203.541 31.002 209.539 31.002C214.212 31.002 217.938 32.3215 220.716 34.9606C224 38.0396 225.641 42.6267 225.641 48.7218V77.5637Z"
    fill="#06A5B8" />
    <path
    d="M255.09 75.5842C251.617 77.7207 247.671 78.7889 243.251 78.7889C232.895 78.7889 227.717 73.762 227.717 63.7082V41.3698H220.992V38.2594L239.651 20.4453V32.0386H253.575V41.3698H239.651V62.5771C239.651 67.0385 241.862 69.2692 246.282 69.2692C249.06 69.2692 251.996 68.2952 255.09 66.3473V75.5842Z"
    fill="url(#paint0_linear_4040_11311)" />
    <path
    d="M282.669 77.9248H270.545V43.899C270.545 37.9295 268.998 34.5678 265.904 33.8137V32.3999H282.669V77.9248Z"
    fill="#E6C619" />
    <path
    d="M326.341 22.9903C324.699 21.6708 322.71 21.011 320.374 21.011C315.764 21.011 313.459 23.8386 313.459 29.4939V31.9445H323.594V41.37H313.459V77.5637H301.43V41.37H295.179V31.9445H301.43V31.6618C301.43 27.326 301.841 23.9329 302.662 21.4823C303.483 19.0316 304.966 16.8638 307.113 14.9787C310.018 12.4024 313.965 11.1143 318.953 11.1143C321.921 11.1143 324.383 11.7426 326.341 12.9993V22.9903Z"
    fill="#06A5B8" />
    <path
    d="M368.868 32.0386L339.033 98.6765L326.53 98.7708L338.275 72.4738L323.689 43.5376C321.668 39.6418 320.437 37.3797 319.995 36.7513C318.795 34.929 317.374 33.8294 315.733 33.4524V32.0386H332.687L344.716 58.1471L356.461 32.0386H368.868Z"
    fill="#06A5B8" />
    <path
    d="M172.387 49.0989C172.008 42.8781 168.977 39.7677 163.294 39.7677C157.801 39.7677 154.612 42.8781 153.728 49.0989H172.387ZM184.226 53.9058C184.226 54.6599 184.163 55.7909 184.037 57.299H153.349C153.98 65.2164 158.621 69.1751 167.272 69.1751C172.197 69.1751 176.649 67.7613 180.627 64.9336L182.616 73.5108C177.438 76.9668 171.503 78.6948 164.81 78.6948C157.485 78.6948 151.644 76.4641 147.287 72.0027C142.93 67.5413 140.752 61.7918 140.752 54.7541C140.752 47.905 142.898 42.2183 147.192 37.6941C151.486 33.107 156.853 30.8135 163.294 30.8135C169.482 30.8135 174.408 32.6671 178.07 36.3745C182.174 40.4589 184.226 46.3026 184.226 53.9058Z"
    fill="#06A5B8" />
    <path
    d="M145.282 75.5844C141.936 77.658 137.61 78.6948 132.306 78.6948C125.108 78.6948 119.109 76.4641 114.31 72.0027C109.574 67.4785 107.206 61.729 107.206 54.7541C107.206 47.8421 109.574 42.124 114.31 37.5998C119.109 33.0756 125.108 30.8135 132.306 30.8135C137.61 30.8135 141.936 31.8503 145.282 33.9239V44.6689C141.999 42.0298 138.052 40.7102 133.443 40.7102C129.528 40.7102 126.307 41.9983 123.782 44.5746C121.256 47.0881 119.993 50.4813 119.993 54.7541C119.993 59.0898 121.256 62.5458 123.782 65.1221C126.307 67.6356 129.528 68.8923 133.443 68.8923C138.052 68.8923 141.999 67.5727 145.282 64.9336V75.5844Z"
    fill="#04A4B9" />
    <path fill-rule="evenodd" clip-rule="evenodd"
    d="M275.277 1.96387C270.1 1.96387 265.904 6.18072 265.904 11.3824C265.904 14.1713 267.111 16.6779 269.026 18.4013C269.665 18.9756 270.137 19.4013 270.473 19.71C270.641 19.8643 270.769 19.9848 270.864 20.0774C270.91 20.1236 270.946 20.1601 270.973 20.1884C270.987 20.2023 270.997 20.2133 271.004 20.2216C271.011 20.2295 271.015 20.2335 271.015 20.2335C271.31 20.6001 271.374 20.6948 271.412 20.7804C271.45 20.8661 271.477 20.9771 271.552 21.4427C271.582 21.6267 271.585 21.9416 271.585 22.7989V22.8357C271.585 23.3378 271.585 23.7709 271.616 24.1263C271.65 24.5021 271.725 24.8742 271.927 25.225C272.151 25.6155 272.474 25.9398 272.862 26.1652C273.212 26.3677 273.582 26.443 273.956 26.4772C274.31 26.5093 274.74 26.5093 275.24 26.5093H275.313C275.813 26.5093 276.244 26.5093 276.598 26.4772C276.972 26.443 277.342 26.3677 277.691 26.1652C278.08 25.9398 278.402 25.6155 278.626 25.225C278.829 24.8742 278.904 24.5021 278.937 24.1263C278.969 23.7709 278.969 23.3378 278.969 22.8357V22.7989C278.969 21.9416 278.973 21.6267 279.001 21.4427C279.076 20.9771 279.104 20.8661 279.141 20.7804C279.18 20.6948 279.244 20.6001 279.539 20.2335C279.539 20.2335 279.541 20.2321 279.543 20.2289C279.543 20.2289 279.547 20.2246 279.55 20.2216C279.557 20.2133 279.567 20.2023 279.58 20.1884C279.607 20.1601 279.644 20.1236 279.69 20.0774C279.785 19.9848 279.913 19.8643 280.081 19.71C280.416 19.4013 280.889 18.9756 281.527 18.4013C283.442 16.6779 284.65 14.1713 284.65 11.3824C284.65 6.18072 280.454 1.96387 275.277 1.96387ZM277.24 23.9717C277.248 23.8781 277.254 23.7743 277.258 23.6552H273.296C273.3 23.7743 273.305 23.8781 273.313 23.9717C273.337 24.2288 273.376 24.3221 273.403 24.3688C273.477 24.4989 273.585 24.6069 273.715 24.6822C273.761 24.7091 273.854 24.7483 274.11 24.7716C274.377 24.796 274.73 24.7969 275.277 24.7969C275.823 24.7969 276.177 24.796 276.444 24.7716C276.7 24.7483 276.792 24.7091 276.839 24.6822C276.969 24.6069 277.076 24.4989 277.15 24.3688C277.178 24.3221 277.216 24.2288 277.24 23.9717Z"
    fill="url(#paint1_linear_4040_11311)" />
    <mask id="mask0_4040_11311" style="mask-type:luminance" maskUnits="userSpaceOnUse" x="59" y="20" width="56"
    height="58">
    <path d="M114.949 20.6182H59.6979V77.5636H114.949V20.6182Z" fill="white" />
    </mask>
    <g mask="url(#mask0_4040_11311)">
    <path
    d="M86.5833 37.0565V75.7292C84.0375 76.9052 81.2192 77.5633 78.2477 77.5633C77.0727 77.5633 75.9404 77.3876 74.8505 77.0542C69.7251 75.501 65.5445 70.578 62.888 64.7249C62.3006 63.4438 61.7897 62.1187 61.364 60.7673C60.138 56.9588 59.5506 52.9924 59.7293 49.4647C60.3338 37.3548 64.7868 30.712 77.3708 33.5901C80.3594 34.2746 82.8199 35.3716 85.0337 36.372C85.5615 36.6089 86.0809 36.8371 86.5833 37.0565Z"
    fill="#90D947" />
    <path
    d="M86.5836 37.0607V75.7275C89.129 76.9079 91.9502 77.5628 94.9198 77.5628C106.208 77.5628 114.022 61.1416 113.439 49.4664C112.834 37.359 108.378 30.7089 95.7965 33.5906C92.1004 34.4371 89.21 35.9181 86.5836 37.0607Z"
    fill="url(#paint2_linear_4040_11311)" />
    <path
    d="M78.2284 22.6279L78.6998 20.8019C78.7248 20.7043 78.8383 20.643 79.0047 20.6242C79.1703 20.6072 79.3914 20.6235 79.6152 20.7088C79.6152 20.7088 79.6809 20.7352 79.8041 20.7847C79.8656 20.8097 79.9412 20.8407 80.0304 20.8768C80.1178 20.9171 80.2183 20.9635 80.3309 21.0154C80.781 21.221 81.4122 21.5485 82.1121 22.0301C82.8138 22.5072 83.5789 23.1462 84.2889 23.9332C85.0061 24.7129 85.6531 25.6493 86.1751 26.6471C86.6868 27.6516 87.0735 28.7168 87.2959 29.7457C87.528 30.7725 87.6115 31.7542 87.6036 32.5899C87.6004 33.4264 87.5148 34.1172 87.4328 34.5938C87.4127 34.713 87.3948 34.8194 87.3792 34.9121C87.3596 35.0037 87.343 35.0819 87.3295 35.1452C87.3018 35.2715 87.2871 35.3388 87.2871 35.3388C87.25 35.5693 87.1563 35.7643 87.0615 35.8962C86.9649 36.0278 86.8582 36.0941 86.7634 36.0681L86.2291 35.9215C86.1345 35.8954 86.0681 35.7874 86.0369 35.6374C86.0039 35.4867 86.0152 35.2958 86.0476 35.0898C86.0476 35.0898 86.0562 35.0286 86.0721 34.9139C86.0799 34.8567 86.0896 34.786 86.1008 34.7029C86.1082 34.6194 86.1167 34.5235 86.1264 34.4159C86.1672 33.9871 86.1953 33.3702 86.1417 32.6377C86.0925 31.9057 85.9533 31.0587 85.6853 30.1922C85.4266 29.3229 85.0243 28.4424 84.5289 27.6308C84.0223 26.8255 83.4232 26.0894 82.7812 25.4955C82.1454 24.8943 81.4817 24.4256 80.8837 24.0866C80.2876 23.7436 79.7613 23.5229 79.3879 23.3886C79.2948 23.3542 79.2118 23.3237 79.1394 23.2971C79.0659 23.2742 79.0034 23.2546 78.9527 23.2387C78.8513 23.2074 78.7973 23.1907 78.7973 23.1907C78.619 23.1214 78.4629 23.0399 78.36 22.9376C78.2566 22.8372 78.2033 22.7255 78.2284 22.6279Z"
    fill="#C8B031" />
    <path
    d="M104.217 21.7614C104.208 22.2616 104.156 22.7442 104.072 23.1918C102.539 31.8529 89.3506 31.9935 89.3506 31.9935C89.3421 31.9847 89.3421 31.9583 89.3591 31.9144C89.4868 30.9755 91.8964 22.3142 99.5509 21.4104C100.419 21.3051 101.355 21.3051 102.361 21.428C102.957 21.4894 103.569 21.6034 104.217 21.7614Z"
    fill="#90D947" />
    </g>
    <path
    d="M54.6779 44.6688C54.6779 38.5108 52.9098 33.3582 49.3738 29.211C45.1431 24.1841 38.8918 21.6707 30.6199 21.6707H22.9478V67.3841H30.6199C38.8918 67.3841 45.1431 64.9335 49.3738 60.0323C52.9098 55.9479 54.6779 50.8267 54.6779 44.6688ZM69.359 44.6688C69.359 53.403 66.4227 60.8806 60.5503 67.1014C53.9202 74.0762 44.9852 77.5636 33.7455 77.5636H9.59279V26.8547C9.59279 23.2102 9.37179 20.6025 8.92978 19.0315C8.23519 16.0154 6.68815 14.0989 4.28867 13.282V11.6797H33.7455C44.9852 11.6797 53.9202 15.1985 60.5503 22.2362C66.4227 28.457 69.359 35.9345 69.359 44.6688Z"
    fill="#90D947" />
    <defs>
    <linearGradient id="paint0_linear_4040_11311" x1="220.519" y1="53.9999" x2="264.874" y2="39.1425"
    gradientUnits="userSpaceOnUse">
    <stop stop-color="#06A5B8" />
    <stop offset="1" stop-color="#E6C619" />
    </linearGradient>
    <linearGradient id="paint1_linear_4040_11311" x1="274.886" y1="18.0719" x2="275.263" y2="1.96354"
    gradientUnits="userSpaceOnUse">
    <stop stop-color="#E6C619" />
    </linearGradient>
    <linearGradient id="paint2_linear_4040_11311" x1="86.5836" y1="55.2426" x2="113.469" y2="55.2426"
    gradientUnits="userSpaceOnUse">
    <stop stop-color="#90D947" />
    <stop offset="1" stop-color="#04A4B9" />
    </linearGradient>
    </defs>
</svg>