<svg width="747" height="1020"
    viewBox="0 0 747 1020" fill="none" xmlns="http://www.w3.org/2000/svg">
    <path d="M329.449 -10.8332C145.575 66.3685 317.014 303.813 693.449 414.167" stroke="#E6C619"
        stroke-opacity="0.45" stroke-width="35" />
    <path d="M348.166 642.137C490.371 502.325 243.183 345.26 -147.353 382.172" stroke="#F26114"
        stroke-opacity="0.42" stroke-width="35" />
    <path d="M677 494C402 430.5 722.5 702 426.385 762.319" stroke="#06A5B8" stroke-opacity="0.44"
        stroke-width="35" />
    <path d="M-38.5 -35C107 306 528.5 280.5 467 645.5" stroke="#8ECF3B" stroke-opacity="0.34"
        stroke-width="35" />
    <path d="M721.007 853C784.501 988.5 460.5 853 360.315 1131.39" stroke="#FF3D3D" stroke-opacity="0.51"
        stroke-width="35" />
    <path d="M533.5 -14.9999C429.724 258.032 499.942 295.8 724.5 274" stroke="#04A4B9" stroke-opacity="0.4"
        stroke-width="35" />
    <path d="M673.491 0.0945957C554.39 34.8065 582.357 78.189 691.5 191.5" stroke="#FF3D3D"
        stroke-opacity="0.58" stroke-width="35" />
    <path d="M669.3 723.4C607 735.5 666.705 778.349 542 822" stroke="#F26114" stroke-opacity="0.49"
        stroke-width="35" />
    <path d="M-13.9696 509.501C76.697 438.495 110.025 463.39 166.03 520.501" stroke="#90D947"
        stroke-opacity="0.47" stroke-width="35" />
    <path
        d="M554.9 879.534C574.269 871.02 590.035 862.458 601.872 855.44C608.281 851.651 626.293 840.844 642.387 821.662C646.878 816.328 650.387 811.369 649.966 805.24C649.311 795.416 638.878 787.041 628.819 784.983C616.515 782.456 606.316 789.802 603.556 791.767C594.246 798.457 594.48 804.726 584.702 814.644C577.731 821.755 570.385 825.919 565.146 828.399L554.9 879.534Z"
        fill="#4C3D28" />
    <path
        d="M565.245 827.368L555.889 878.831C573.835 871.178 579.957 866.201 581.62 855.439C583.283 844.677 586.299 813.333 586.299 813.333L565.245 827.368Z"
        fill="#33271D" />
    <path
        d="M562.518 798.84C574.916 883.099 522.003 950.844 510.073 966.095C419.077 1082.59 253.974 1078.33 210.23 1077.16C151.75 1075.66 36.4726 1072.67 -44.184 984.014C-55.0848 971.99 -131.952 884.877 -112.256 777.366C-103.507 729.693 -79.5064 698.16 -53.7281 665.083C-23.5052 626.299 39.4201 545.595 142.019 520.987C340.058 473.5 500.576 679.68 518.4 703.306C547.313 741.529 558.448 771.238 562.518 798.84Z"
        fill="url(#paint0_linear_135_1135)" />
    <path
        d="M563.51 784.887C575.908 869.146 522.995 936.89 511.065 952.142C420.069 1068.64 254.966 1064.38 211.223 1063.21C152.742 1061.71 37.4646 1058.72 -43.192 970.06C-54.0928 958.036 -130.96 870.924 -111.264 763.413C-102.515 715.739 -78.5143 684.206 -52.736 651.13C-22.5132 612.345 40.4121 531.642 143.011 507.033C341.05 459.547 501.568 665.726 519.393 689.353C548.305 727.576 559.44 757.284 563.51 784.887Z"
        fill="url(#paint1_linear_135_1135)" />
    <path
        d="M496.453 871.649C482.371 967.37 339.819 1032.54 225.15 1032.63C124.142 1032.73 -28.9374 982.435 -48.0255 868.561C-66.7393 757.074 53.1227 645.212 167.838 625.048C333.409 595.901 513.857 753.191 496.453 871.649Z"
        fill="#1D1509" />
    <path
        d="M498.101 857.356C484.019 953.077 341.466 1018.25 226.797 1018.34C125.789 1018.43 -27.2897 968.142 -46.3778 854.268C-65.0916 742.78 54.7704 630.918 169.486 610.754C335.057 581.607 515.505 738.897 498.101 857.356Z"
        fill="url(#paint2_linear_135_1135)" />
    <path
        d="M282.313 822.896C290.968 836.042 277.915 860.37 265.611 873.049C261.026 877.774 248.488 890.687 229.774 890.968C210.686 891.248 192.261 881.798 183.653 873.049C171.123 862.334 158.381 832.159 166.474 819.294C170.217 813.352 177.656 813.633 225.61 814.943C270.804 816.253 278.009 816.393 282.313 822.896Z"
        fill="#FFF7CF" />
    <path
        d="M186.143 547.174C195.734 552.554 205.512 550.075 217.208 547.174C225.956 544.975 233.863 543.01 237.512 536.414C241.255 529.583 238.495 521.443 237.512 518.495C228.249 490.518 228.249 459.781 217.208 432.505C200.038 390.025 203.36 343.24 210.05 249.765C214.167 191.986 220.202 190.863 218.424 153.014C216.459 111.376 208.365 95.282 211.874 52.6612C214.307 22.6723 217.067 -5.91313 237.559 -21.3988C250.752 -31.3639 256.741 -24.9077 287.712 -35.7149C313.678 -44.7911 318.683 -52.5573 348.626 -66.7798C361.819 -73.0489 381.515 -81.3298 407.153 -88.3007C430.639 -104.629 454.125 -120.956 477.611 -137.284C451.458 -120.021 427.364 -108.371 407.153 -100.278C389.375 -93.1663 386.849 -93.6809 364.158 -84.745C328.649 -70.8032 319.151 -63.3178 292.531 -52.5105C276.998 -46.1946 254.448 -38.2413 225.489 -32.206C220.717 -23.4573 215.898 -14.7085 211.126 -5.91299C208.974 -14.8956 207.009 -24.4397 205.324 -34.592C202.892 -49.0484 201.395 -62.6628 200.552 -75.2011L171.873 -96.7219L133.697 -108.652L81.5793 -111.038L42.8884 -137.331L-20.4111 -143.319L-58.6342 -123.015L-20.4111 -129.003L2.27938 -134.992L34.514 -127.834C43.6838 -121.845 52.8068 -115.904 61.9765 -109.915C73.9066 -105.517 85.8835 -101.166 97.8136 -96.7687L125.276 -99.1548L162.283 -84.8387L183.803 -68.1366C186.049 -59.1539 188.903 -47.8321 192.178 -34.6856C195.313 -21.9602 196.248 -18.0303 196.95 -11.9951C197.839 -4.27562 197.886 3.1631 196.95 15.4674C195.5 33.9941 192.973 47.6552 192.178 52.4741C188.763 72.5446 190.915 81.7145 192.178 116.99C192.178 116.99 193.348 149.786 192.178 192.266C190.821 240.876 187.219 247.004 186.19 297.391C185.722 321.579 186.611 316.854 186.19 352.316C185.768 387.171 185.441 412.528 182.587 444.295C181.184 459.968 178.751 482.097 174.213 508.811L171.827 527.946C172.996 532.016 176.599 541.841 186.143 547.174Z"
        fill="url(#paint3_linear_135_1135)" />
    <path
        d="M400.508 -86.3814C407.526 -87.1767 417.725 -87.7849 429.842 -86.3814C442.802 -84.8843 454.825 -83.5276 465.679 -76.3227C485.984 -62.8488 489.68 -37.3044 490.756 -29.7253C494.873 -1.18674 481.96 20.8488 477.609 27.6326C469.796 15.0476 462.171 5.08241 456.089 -2.21598C447.199 -12.8829 442.053 -19.1051 433.398 -26.1228C420.205 -36.7897 414.731 -36.5558 407.105 -45.2577C399.339 -54.1468 396.391 -64.3926 395.175 -71.5506C392.649 -75.153 390.122 -78.7556 387.596 -82.358"
        fill="url(#paint4_linear_135_1135)" />
    <path
        d="M305.537 -40.9537C312.555 -41.749 322.754 -42.3572 334.871 -40.9537C347.83 -39.4566 359.854 -38.0998 370.708 -30.895C391.013 -17.421 394.709 8.12344 395.785 15.7025C399.902 44.2411 386.989 66.2766 382.638 73.0603C374.825 60.4753 367.199 50.5103 361.117 43.2119C352.228 32.545 347.082 26.3226 338.427 19.3049C325.233 8.63802 319.76 8.87196 312.134 0.170025C304.368 -8.71904 301.42 -18.9648 300.204 -26.1229C297.677 -29.7253 295.151 -33.3277 292.625 -36.9301"
        fill="url(#paint5_linear_135_1135)" />
    <path
        d="M195.684 -4.74419C204.854 -15.3175 215.568 -20.3235 221.977 -22.6628L232.784 -29.8208C237.135 -23.5049 242.843 -13.914 247.054 -1.23535C252.107 13.9229 256.879 28.0985 251.826 41.8532C246.586 56.1693 235.451 57.2453 213.603 78.8598C203.451 88.9185 196.293 98.135 192.082 103.936C184.596 84.24 181.789 67.5847 180.62 56.1693C178.982 40.3093 180.292 32.0285 180.62 29.8764C181.883 22.5312 184.409 8.3087 195.684 -4.74419Z"
        fill="url(#paint6_linear_135_1135)" />
    <path
        d="M81.5295 -86.8033C94.1145 -92.8852 105.998 -93.2596 112.735 -92.8853L125.507 -95.1777C127.004 -87.6922 128.454 -76.6042 127.332 -63.2706C125.975 -47.3639 124.758 -32.4396 114.7 -21.8195C104.22 -10.7316 93.5998 -14.1468 64.9677 -2.91853C51.6341 2.32134 41.4351 7.93556 35.3063 11.6315C36.242 -9.42152 40.2187 -25.8429 43.6808 -36.7905C48.4528 -51.9955 52.8973 -59.1068 54.0669 -60.9314C58.0436 -67.2005 65.997 -79.2709 81.5295 -86.8033Z"
        fill="url(#paint7_linear_135_1135)" />
    <path
        d="M390.403 767.53C390.73 772.77 388.438 779.694 383.151 782.969C370.005 790.876 355.174 765.191 327.571 765.519C303.571 765.846 291.734 785.262 279.57 778.01C273.301 774.408 270.354 765.846 271.664 759.249C274.611 742.126 307.501 732.957 332.203 734.266C357.513 735.623 389.42 749.752 390.403 767.53Z"
        fill="#FFF7CF" />
    <path
        d="M170.423 761.683C171.265 766.876 169.627 773.988 164.715 777.777C152.411 786.9 135.147 762.853 107.685 765.847C83.8245 768.514 73.9531 789.005 61.1341 782.97C54.5843 779.976 50.7947 771.742 51.4497 765.098C52.7129 747.788 84.5732 735.39 109.229 734.314C134.539 733.145 167.709 744.092 170.423 761.683Z"
        fill="#FFF7CF" />
    <defs>
        <linearGradient id="paint0_linear_135_1135" x1="224.459" y1="1077.5" x2="224.459" y2="513.91"
            gradientUnits="userSpaceOnUse">
            <stop stop-color="#2D863B" />
            <stop offset="0.5" stop-color="#4A3618" />
            <stop offset="1" stop-color="#4F4029" />
        </linearGradient>
        <linearGradient id="paint1_linear_135_1135" x1="225.451" y1="1063.55" x2="225.451" y2="499.957"
            gradientUnits="userSpaceOnUse">
            <stop stop-color="#2D813A" />
            <stop offset="0.5" stop-color="#2E883C" />
            <stop offset="1" stop-color="#469352" />
        </linearGradient>
        <linearGradient id="paint2_linear_135_1135" x1="-28.9163" y1="413.323" x2="481.036" y2="1072.99"
            gradientUnits="userSpaceOnUse">
            <stop stop-color="#4E3F29" />
            <stop offset="1" stop-color="#211715" />
        </linearGradient>
        <linearGradient id="paint3_linear_135_1135" x1="209.488" y1="-143.319" x2="209.488" y2="550.346"
            gradientUnits="userSpaceOnUse">
            <stop stop-color="#81725D" />
            <stop offset="1" stop-color="#4E3F29" />
        </linearGradient>
        <linearGradient id="paint4_linear_135_1135" x1="439.576" y1="-87.2212" x2="439.576" y2="27.6326"
            gradientUnits="userSpaceOnUse">
            <stop stop-color="white" />
            <stop offset="1" stop-color="#7EC438" />
        </linearGradient>
        <linearGradient id="paint5_linear_135_1135" x1="344.604" y1="-41.7935" x2="344.604" y2="73.0603"
            gradientUnits="userSpaceOnUse">
            <stop stop-color="#6A9E37" />
            <stop offset="1" stop-color="#9BCD69" />
        </linearGradient>
        <linearGradient id="paint6_linear_135_1135" x1="216.896" y1="-29.8208" x2="216.896" y2="103.936"
            gradientUnits="userSpaceOnUse">
            <stop stop-color="#138F34" />
            <stop offset="1" stop-color="#11CF44" />
        </linearGradient>
        <linearGradient id="paint7_linear_135_1135" x1="81.5185" y1="-95.1777" x2="81.5185" y2="11.6315"
            gradientUnits="userSpaceOnUse">
            <stop stop-color="#138F34" />
            <stop offset="1" stop-color="#11CF44" />
        </linearGradient>
    </defs>
</svg>