<svg width="1440" height="1020" viewBox="0 0 1440 1020" fill="none" xmlns="http://www.w3.org/2000/svg">
<g clip-path="url(#clip0_4040_11436)">
<rect width="1440" height="1020" fill="#D8F0C0"/>
<path d="M348.166 642.137C490.371 502.325 243.183 345.26 -147.353 382.172" stroke="#F26114" stroke-opacity="0.42" stroke-width="35"/>
<path d="M-38.5 -35C107 306 528.5 280.5 467 645.5" stroke="#8ECF3B" stroke-opacity="0.34" stroke-width="35"/>
<path d="M670.463 -17C670.463 -17 606.442 9.15895 599.95 47.2352C593.053 87.6937 625.053 107.271 651.96 136.629C671.518 157.969 685.401 166.967 709.47 182.129C758.545 213.042 792.282 218.249 847.995 230.841C953.474 254.679 1018.2 252.741 1124.05 230.841C1207.25 213.625 1262.87 210.513 1328.58 153.223C1362.94 123.266 1368.72 91.7314 1402.6 61.1528C1416.15 48.9162 1426.08 45.1339 1439.1 32.2469C1443.77 27.6306 1473.11 3.34113 1450.6 19.9352" stroke="#FF3D3D" stroke-opacity="0.51" stroke-width="35"/>
<path d="M-13.9696 509.501C76.697 438.495 110.025 463.39 166.03 520.501" stroke="#90D947" stroke-opacity="0.47" stroke-width="35"/>
<path d="M474.5 736.5C474.5 736.5 544.717 698.214 566 655.5C591.341 604.642 526.91 551.239 566 510C588.383 486.386 610.588 483.342 642.5 477C702.826 465.012 735.544 501.791 796.5 510C901.966 524.204 963.109 520.576 1069 510C1165.56 500.356 1232.16 516.687 1313 463C1357.63 433.358 1371.63 403.377 1408.5 364.5C1426.37 345.655 1454 316 1454 316" stroke="#06A5B8" stroke-opacity="0.44" stroke-width="35"/>
<path d="M721.5 1054C721.5 1054 858.228 891.941 946 873.5C1017.66 858.444 1058.01 909.827 1131 904C1180.33 900.061 1233.37 918.483 1254 873.5C1272.67 832.785 1191.88 804.948 1214 766C1233.71 731.311 1272.06 729.498 1311.5 735.5C1351.29 741.555 1355.77 795.52 1396 794.5C1440.22 793.378 1480 718.5 1480 718.5" stroke="#E6C619" stroke-opacity="0.45" stroke-width="35"/>
<path d="M425 1024C425 1024 541.935 962.175 620.505 930.639C665.548 912.56 721.957 934.034 737.496 888.575C743.855 869.972 734.897 855.744 737.496 838.303C740.096 820.862 772.738 764.178 810.291 729.04C866.239 676.689 916.269 668.876 991.237 651.068C1037.61 640.051 1046.53 637.218 1112.39 635.679C1178.25 634.14 1249.93 655.795 1328.69 625.419C1398.26 598.591 1435.8 546.592 1480 510" stroke="#FF3D3D" stroke-opacity="0.51" stroke-width="35"/>
<path d="M528 828C528 828 590.803 814.121 617 786C633.509 768.279 647.5 732 647.5 732C647.5 732 669.128 706.422 684.5 691.5C718.659 658.341 739.902 640.254 782.5 619C821.847 599.368 846.799 593.704 890 585.5C960.595 572.094 1002.31 590.432 1074 585.5C1139.43 580.999 1177.77 582.641 1240.5 563.5C1346.59 531.129 1478.5 408.5 1478.5 408.5" stroke="#F26114" stroke-opacity="0.42" stroke-width="35"/>
<path d="M346 -22C346 -22 278.163 24.9977 272 71C266.322 113.381 287.566 137.412 310.5 173.5C335.754 213.239 359.736 228.583 396.5 258C454.935 304.758 495.478 320.793 563.5 352C634.569 384.604 675.909 401.5 752 419.5C894.17 453.132 983.656 460.887 1126 428C1206.52 409.397 1252.95 395.034 1323.5 352C1394.34 308.793 1482 210.5 1482 210.5" stroke="#E6C619" stroke-opacity="0.45" stroke-width="35"/>
<path d="M531 -4.5C531 -4.5 446.754 132.229 486 207C523.022 277.535 595.623 266.812 670.5 294C737.642 318.379 776.731 329.17 847 342C903.637 352.341 935.935 359.463 993.5 358.5C1072.49 357.179 1119.15 350.069 1192 319.5C1247.62 296.162 1274.95 274.282 1323.5 238.5C1374.18 201.155 1444.5 132 1444.5 132L1460 116.5" stroke="#06A5B8" stroke-opacity="0.44" stroke-width="35"/>
<path d="M554.9 879.534C574.269 871.02 590.035 862.458 601.872 855.44C608.281 851.651 626.293 840.844 642.387 821.662C646.878 816.328 650.387 811.369 649.966 805.24C649.311 795.416 638.878 787.041 628.82 784.983C616.515 782.456 606.316 789.802 603.556 791.767C594.246 798.457 594.48 804.726 584.702 814.644C577.731 821.755 570.386 825.919 565.146 828.399L554.9 879.534Z" fill="#4C3D28"/>
<path d="M565.246 827.368L555.889 878.831C573.835 871.178 579.958 866.201 581.62 855.439C583.283 844.677 586.299 813.333 586.299 813.333L565.246 827.368Z" fill="#33271D"/>
<path d="M562.518 798.84C574.916 883.099 522.003 950.844 510.073 966.095C419.077 1082.59 253.974 1078.33 210.23 1077.16C151.75 1075.66 36.4724 1072.67 -44.1842 984.014C-55.085 971.99 -131.952 884.877 -112.256 777.366C-103.507 729.693 -79.5065 698.16 -53.7282 665.083C-23.5053 626.299 39.42 545.595 142.019 520.987C340.058 473.5 500.575 679.68 518.4 703.306C547.313 741.529 558.448 771.238 562.518 798.84Z" fill="url(#paint0_linear_4040_11436)"/>
<path d="M563.51 784.887C575.908 869.146 522.995 936.89 511.065 952.142C420.069 1068.64 254.966 1064.38 211.223 1063.21C152.742 1061.71 37.4646 1058.72 -43.192 970.06C-54.0928 958.036 -130.96 870.924 -111.264 763.413C-102.515 715.739 -78.5143 684.206 -52.736 651.13C-22.5132 612.345 40.4121 531.642 143.011 507.033C341.05 459.547 501.568 665.726 519.393 689.353C548.305 727.576 559.44 757.284 563.51 784.887Z" fill="url(#paint1_linear_4040_11436)"/>
<path d="M496.453 871.649C482.371 967.37 339.819 1032.54 225.15 1032.63C124.142 1032.73 -28.9373 982.435 -48.0254 868.561C-66.7392 757.074 53.1228 645.212 167.839 625.048C333.409 595.901 513.857 753.191 496.453 871.649Z" fill="#1D1509"/>
<path d="M498.101 857.356C484.019 953.077 341.466 1018.25 226.797 1018.34C125.789 1018.43 -27.2896 968.142 -46.3777 854.268C-65.0915 742.78 54.7705 630.918 169.486 610.754C335.057 581.607 515.505 738.897 498.101 857.356Z" fill="url(#paint2_radial_4040_11436)"/>
<path d="M282.313 822.896C290.968 836.042 277.915 860.37 265.611 873.049C261.026 877.774 248.488 890.687 229.774 890.968C210.686 891.248 192.261 881.798 183.653 873.049C171.123 862.334 158.381 832.159 166.474 819.294C170.217 813.352 177.656 813.633 225.61 814.943C270.804 816.253 278.009 816.393 282.313 822.896Z" fill="#FFF7CF"/>
<path d="M186.143 547.174C195.733 552.554 205.511 550.075 217.208 547.174C225.956 544.975 233.863 543.01 237.512 536.414C241.255 529.583 238.495 521.443 237.512 518.495C228.249 490.518 228.249 459.781 217.208 432.505C200.038 390.025 203.359 343.24 210.05 249.765C214.167 191.986 220.202 190.863 218.424 153.014C216.459 111.376 208.365 95.282 211.874 52.6612C214.307 22.6723 217.067 -5.91313 237.559 -21.3988C250.752 -31.3639 256.741 -24.9077 287.712 -35.7149C313.677 -44.7911 318.683 -52.5573 348.625 -66.7798C361.819 -73.0489 381.515 -81.3298 407.153 -88.3007C430.639 -104.629 454.125 -120.956 477.611 -137.284C451.458 -120.021 427.364 -108.371 407.153 -100.278C389.375 -93.1663 386.849 -93.6809 364.158 -84.745C328.648 -70.8032 319.151 -63.3178 292.531 -52.5105C276.998 -46.1946 254.448 -38.2413 225.488 -32.206C220.716 -23.4573 215.898 -14.7085 211.126 -5.91299C208.974 -14.8956 207.009 -24.4397 205.324 -34.592C202.892 -49.0484 201.394 -62.6628 200.552 -75.2011L171.873 -96.7219L133.697 -108.652L81.5792 -111.038L42.8882 -137.331L-20.4112 -143.319L-58.6343 -123.015L-20.4112 -129.003L2.27926 -134.992L34.5139 -127.834C43.6837 -121.845 52.8066 -115.904 61.9764 -109.915C73.9065 -105.517 85.8834 -101.166 97.8134 -96.7687L125.276 -99.1548L162.283 -84.8387L183.803 -68.1366C186.049 -59.1539 188.903 -47.8321 192.178 -34.6856C195.312 -21.9602 196.248 -18.0303 196.95 -11.9951C197.839 -4.27562 197.886 3.1631 196.95 15.4674C195.5 33.9941 192.973 47.6552 192.178 52.4741C188.763 72.5446 190.915 81.7145 192.178 116.99C192.178 116.99 193.347 149.786 192.178 192.266C190.821 240.876 187.219 247.004 186.189 297.391C185.722 321.579 186.61 316.854 186.189 352.316C185.768 387.171 185.441 412.528 182.587 444.295C181.184 459.968 178.751 482.097 174.213 508.811L171.827 527.946C172.996 532.016 176.599 541.841 186.143 547.174Z" fill="url(#paint3_linear_4040_11436)"/>
<path d="M400.508 -86.3814C407.526 -87.1767 417.725 -87.7849 429.842 -86.3814C442.802 -84.8843 454.825 -83.5276 465.679 -76.3227C485.984 -62.8488 489.68 -37.3044 490.756 -29.7253C494.873 -1.18674 481.96 20.8488 477.609 27.6326C469.796 15.0476 462.17 5.08241 456.088 -2.21598C447.199 -12.8829 442.053 -19.1051 433.398 -26.1228C420.205 -36.7897 414.731 -36.5558 407.105 -45.2577C399.339 -54.1468 396.391 -64.3926 395.175 -71.5506C392.649 -75.153 390.122 -78.7556 387.596 -82.358" fill="url(#paint4_linear_4040_11436)"/>
<path d="M305.537 -40.9537C312.555 -41.749 322.754 -42.3572 334.871 -40.9537C347.83 -39.4566 359.854 -38.0998 370.708 -30.895C391.012 -17.421 394.709 8.12344 395.785 15.7025C399.902 44.2411 386.989 66.2766 382.638 73.0603C374.825 60.4753 367.199 50.5103 361.117 43.2119C352.228 32.545 347.082 26.3226 338.427 19.3049C325.233 8.63802 319.76 8.87196 312.134 0.170025C304.368 -8.71904 301.42 -18.9648 300.204 -26.1229C297.677 -29.7253 295.151 -33.3277 292.625 -36.9301" fill="url(#paint5_linear_4040_11436)"/>
<path d="M195.684 -4.74419C204.854 -15.3175 215.568 -20.3235 221.977 -22.6628L232.784 -29.8208C237.135 -23.5049 242.843 -13.914 247.054 -1.23535C252.107 13.9229 256.879 28.0985 251.826 41.8532C246.586 56.1693 235.451 57.2453 213.603 78.8598C203.451 88.9185 196.293 98.135 192.082 103.936C184.596 84.24 181.789 67.5847 180.62 56.1693C178.982 40.3093 180.292 32.0285 180.62 29.8764C181.883 22.5312 184.409 8.3087 195.684 -4.74419Z" fill="url(#paint6_linear_4040_11436)"/>
<path d="M81.5296 -86.8033C94.1146 -92.8852 105.998 -93.2596 112.735 -92.8853L125.507 -95.1777C127.004 -87.6922 128.455 -76.6042 127.332 -63.2706C125.975 -47.3639 124.759 -32.4396 114.7 -21.8195C104.22 -10.7316 93.6 -14.1468 64.9678 -2.91853C51.6342 2.32134 41.4352 7.93556 35.3064 11.6315C36.2421 -9.42152 40.2188 -25.8429 43.6809 -36.7905C48.4529 -51.9955 52.8974 -59.1068 54.0671 -60.9314C58.0437 -67.2005 65.9971 -79.2709 81.5296 -86.8033Z" fill="url(#paint7_linear_4040_11436)"/>
<path d="M390.403 767.53C390.73 772.77 388.438 779.694 383.151 782.969C370.005 790.876 355.174 765.191 327.571 765.519C303.571 765.846 291.734 785.262 279.57 778.01C273.301 774.408 270.354 765.846 271.664 759.249C274.611 742.126 307.501 732.957 332.203 734.266C357.513 735.623 389.42 749.752 390.403 767.53Z" fill="#FFF7CF"/>
<path d="M170.423 761.683C171.265 766.876 169.628 773.988 164.715 777.777C152.411 786.9 135.147 762.853 107.685 765.847C83.8247 768.514 73.9532 789.005 61.1342 782.97C54.5844 779.976 50.7948 771.742 51.4498 765.098C52.713 747.788 84.5733 735.39 109.229 734.314C134.539 733.145 167.709 744.092 170.423 761.683Z" fill="#FFF7CF"/>
<path d="M766 -30C766 -30 935.933 112.329 1062.15 114.962C1194 117.712 1374 -30 1374 -30" stroke="#E6C619" stroke-opacity="0.45" stroke-width="35"/>
</g>
<defs>
<linearGradient id="paint0_linear_4040_11436" x1="224.459" y1="1077.5" x2="224.459" y2="513.91" gradientUnits="userSpaceOnUse">
<stop stop-color="#2D863B"/>
<stop offset="0.5" stop-color="#4A3618"/>
<stop offset="1" stop-color="#4F4029"/>
</linearGradient>
<linearGradient id="paint1_linear_4040_11436" x1="225.451" y1="1063.55" x2="225.451" y2="499.957" gradientUnits="userSpaceOnUse">
<stop stop-color="#2D813A"/>
<stop offset="0.5" stop-color="#2E883C"/>
<stop offset="1" stop-color="#469352"/>
</linearGradient>
<radialGradient id="paint2_radial_4040_11436" cx="0" cy="0" r="1" gradientUnits="userSpaceOnUse" gradientTransform="translate(226.06 743.154) rotate(52.2942) scale(416.895 555.279)">
<stop stop-color="#4E3F29"/>
<stop offset="1" stop-color="#211715"/>
</radialGradient>
<linearGradient id="paint3_linear_4040_11436" x1="209.488" y1="-143.319" x2="209.488" y2="550.346" gradientUnits="userSpaceOnUse">
<stop stop-color="#81725D"/>
<stop offset="1" stop-color="#4E3F29"/>
</linearGradient>
<linearGradient id="paint4_linear_4040_11436" x1="439.576" y1="-87.2212" x2="439.576" y2="27.6326" gradientUnits="userSpaceOnUse">
<stop stop-color="white"/>
<stop offset="1" stop-color="#7EC438"/>
</linearGradient>
<linearGradient id="paint5_linear_4040_11436" x1="344.604" y1="-41.7935" x2="344.604" y2="73.0603" gradientUnits="userSpaceOnUse">
<stop stop-color="#6A9E37"/>
<stop offset="1" stop-color="#9BCD69"/>
</linearGradient>
<linearGradient id="paint6_linear_4040_11436" x1="216.896" y1="-29.8208" x2="216.896" y2="103.936" gradientUnits="userSpaceOnUse">
<stop stop-color="#138F34"/>
<stop offset="1" stop-color="#11CF44"/>
</linearGradient>
<linearGradient id="paint7_linear_4040_11436" x1="81.5186" y1="-95.1777" x2="81.5186" y2="11.6315" gradientUnits="userSpaceOnUse">
<stop stop-color="#138F34"/>
<stop offset="1" stop-color="#11CF44"/>
</linearGradient>
<clipPath id="clip0_4040_11436">
<rect width="1440" height="1020" fill="white"/>
</clipPath>
</defs>
</svg>
