<svg width="501" height="501" viewBox="0 0 501 501" fill="none" xmlns="http://www.w3.org/2000/svg">
<path d="M332.68 92.58H398.43C398.43 92.58 392.62 82 375.69 83.54C359.53 85.01 358.7 78.33 350.49 77.51C342.27 76.69 335.42 82.99 332.68 92.58Z" fill="#DCFBFF"/>
<path d="M160.819 266.4C160.819 266.4 154.229 269.96 163.819 283.72C173.409 297.48 179.649 304.08 179.649 304.08C179.649 304.08 181.459 307.33 178.639 308.26C175.819 309.19 169.309 309.05 168.509 312.77C167.679 316.62 170.819 319.72 176.649 322.01C182.469 324.3 195.049 329.79 196.179 330.29C197.289 330.78 198.539 332.24 196.729 333.18C194.919 334.12 180.799 337.59 182.839 344.19C184.889 350.79 202.159 354.51 204.039 354.95C205.919 355.39 206.449 356.09 206.439 357.09C206.429 358.09 201.569 358.81 197.599 359.96C193.629 361.11 189.219 363.14 190.719 366.85C192.219 370.56 203.079 377.29 227.049 376.35L238.129 375.19L242.849 365.04C251.629 342.71 248.839 330.24 245.829 327.6C242.819 324.96 239.449 328.46 237.059 331.83C234.669 335.2 232.389 339.55 231.439 339.23C230.489 338.91 230.009 338.18 230.209 336.26C230.409 334.34 232.579 316.8 227.019 312.7C221.459 308.6 213.539 320.79 212.049 322.19C210.559 323.6 209.599 321.94 209.499 320.72C209.399 319.48 208.349 305.8 208.099 299.55C207.849 293.3 205.959 289.31 202.049 288.83C198.279 288.36 196.269 294.55 194.459 296.91C192.649 299.26 190.179 296.48 190.179 296.48C190.179 296.48 185.989 288.41 176.159 274.83C166.319 261.25 160.679 266.45 160.679 266.45" fill="#72BA2B"/>
<path d="M239.079 377.72C231.889 367.72 219.419 349.73 208.629 334.33C197.839 318.94 188.069 305.02 180.929 294.98C177.359 289.97 174.469 285.92 172.469 283.1C171.479 281.71 170.709 280.62 170.169 279.87C169.919 279.51 169.719 279.23 169.579 279.02C169.449 278.83 169.389 278.72 169.389 278.72C169.389 278.72 169.469 278.81 169.609 278.99C169.759 279.19 169.959 279.46 170.229 279.82C170.779 280.56 171.569 281.64 172.579 283.01C174.619 285.79 177.539 289.82 181.129 294.83C188.319 304.83 198.129 318.73 208.909 334.12C219.699 349.51 232.139 367.52 239.269 377.56" fill="#3E5426"/>
<path d="M177.619 313.33C177.629 313.31 177.909 313.35 178.419 313.44C178.929 313.53 179.659 313.68 180.569 313.88C182.379 314.27 184.859 314.88 187.589 315.6C190.279 316.32 192.709 316.97 194.569 317.47C195.409 317.69 196.119 317.87 196.689 318.02C197.189 318.15 197.469 318.23 197.459 318.25C197.459 318.27 197.169 318.24 196.659 318.15C196.149 318.06 195.419 317.91 194.509 317.7C192.699 317.29 190.229 316.65 187.499 315.93C184.809 315.23 182.369 314.6 180.509 314.11C179.669 313.89 178.959 313.71 178.389 313.57C177.889 313.44 177.609 313.36 177.619 313.33Z" fill="#3E5426"/>
<path d="M198.119 317.45C198.029 317.43 199.059 312.25 200.419 305.89C201.779 299.52 202.959 294.38 203.059 294.4C203.149 294.42 202.129 299.6 200.759 305.96C199.389 312.33 198.209 317.47 198.119 317.45Z" fill="#3E5426"/>
<path d="M213.619 341.83C213.599 341.82 213.729 341.55 213.969 341.09C214.249 340.56 214.609 339.9 215.029 339.12C215.919 337.46 217.149 335.16 218.399 332.57C219.659 329.98 220.719 327.6 221.479 325.87C221.839 325.06 222.139 324.37 222.379 323.82C222.589 323.34 222.719 323.07 222.749 323.08C222.769 323.09 222.689 323.37 222.509 323.87C222.329 324.37 222.069 325.09 221.709 325.96C221.009 327.72 219.979 330.12 218.719 332.72C217.459 335.32 216.199 337.61 215.249 339.24C214.769 340.06 214.379 340.71 214.089 341.16C213.799 341.6 213.639 341.84 213.619 341.83Z" fill="#3E5426"/>
<path d="M194.26 342.19C194.26 342.17 194.53 342.14 195.02 342.1C195.58 342.07 196.27 342.03 197.08 341.98C198.82 341.89 201.23 341.8 203.89 341.72C206.55 341.64 208.96 341.58 210.71 341.56C211.52 341.56 212.22 341.55 212.78 341.55C213.27 341.56 213.54 341.57 213.54 341.59C213.54 341.61 213.27 341.65 212.78 341.68C212.22 341.71 211.53 341.75 210.72 341.8C208.98 341.89 206.57 341.98 203.9 342.06C201.24 342.14 198.83 342.2 197.08 342.22C196.27 342.22 195.57 342.23 195.01 342.23C194.53 342.23 194.26 342.21 194.26 342.19Z" fill="#3E5426"/>
<path d="M205.209 365.45C205.209 365.43 205.549 365.39 206.179 365.34C206.869 365.3 207.759 365.24 208.819 365.18C211.049 365.06 214.139 364.91 217.549 364.77C220.959 364.63 224.049 364.52 226.289 364.46C227.359 364.44 228.249 364.42 228.939 364.41C229.569 364.41 229.909 364.41 229.909 364.44C229.909 364.46 229.569 364.5 228.939 364.55C228.249 364.59 227.359 364.65 226.299 364.71C224.069 364.83 220.979 364.98 217.569 365.12C214.159 365.26 211.069 365.37 208.839 365.43C207.769 365.45 206.879 365.47 206.189 365.48C205.549 365.48 205.209 365.47 205.209 365.45Z" fill="#3E5426"/>
<path d="M229.308 364.3C229.288 364.29 229.438 363.95 229.728 363.35C230.048 362.69 230.478 361.84 230.978 360.81C232.038 358.66 233.488 355.69 234.988 352.36C236.498 349.03 237.788 345.99 238.708 343.77C239.148 342.71 239.518 341.83 239.798 341.15C240.058 340.53 240.208 340.19 240.238 340.2C240.258 340.21 240.148 340.56 239.928 341.2C239.708 341.83 239.368 342.74 238.938 343.86C238.078 346.1 236.818 349.17 235.308 352.5C233.798 355.83 232.318 358.8 231.198 360.92C230.638 361.98 230.178 362.83 229.848 363.42C229.518 363.99 229.328 364.31 229.308 364.3Z" fill="#3E5426"/>
<path d="M322.299 216.72C310.389 203.37 311.539 184.1 316.039 167.61C316.789 164.86 317.179 161.86 319.079 159.73C320.979 157.61 324.449 156.67 326.659 158.43C328.489 159.89 328.819 162.5 329.509 164.76C330.419 167.76 332.189 170.49 334.549 172.52C336.099 173.86 338.149 174.93 340.129 174.39C342.839 173.64 343.899 170.39 344.539 167.63C345.729 162.48 346.909 157.32 348.099 152.17C348.739 149.41 349.399 146.58 350.879 144.17C352.359 141.75 354.829 139.77 357.629 139.65C360.429 139.54 363.319 141.82 363.229 144.65C363.189 145.83 362.689 146.94 362.489 148.11C362.299 149.27 362.529 150.67 363.539 151.25C364.569 151.83 365.859 151.31 366.869 150.7C370.379 148.59 373.159 145.45 375.819 142.31C378.469 139.17 381.089 135.93 384.399 133.5C387.709 131.07 391.849 129.51 395.859 130.22C399.869 130.93 403.499 134.37 403.579 138.49C403.659 142.62 400.449 146.03 397.239 148.6C392.469 152.41 387.149 155.51 381.509 157.79C380.489 158.2 379.389 158.65 378.819 159.59C377.779 161.29 379.099 163.53 380.769 164.57C382.669 165.74 384.949 166.06 387.039 166.82C389.129 167.58 391.239 169.09 391.569 171.31C392.029 174.4 388.969 176.8 386.189 178.19C380.619 180.97 374.579 182.78 368.429 183.51C366.219 183.77 363.929 183.92 361.959 184.96C359.979 186 358.409 188.25 358.939 190.43C359.469 192.61 361.859 193.84 364.079 193.94C366.299 194.05 368.479 193.35 370.689 193.06C374.819 192.53 379.659 193.95 381.319 197.8C382.409 200.33 381.839 203.37 380.419 205.75C378.999 208.13 376.839 209.95 374.619 211.58C366.849 217.27 357.699 221.17 348.179 222.14C338.649 223.1 330.289 221.99 322.299 216.72Z" fill="#72BA2B"/>
<path d="M324.719 218.32C326.879 211.87 324.619 215.11 329.069 207.31C333.509 199.5 339.079 191.34 345.199 183C346.739 180.92 348.259 178.87 349.759 176.84C351.259 174.82 352.749 172.82 354.319 170.96C357.459 167.21 360.759 163.85 363.989 160.75C367.219 157.65 370.399 154.83 373.389 152.21C376.389 149.6 379.229 147.22 381.909 145.16C387.259 141.02 391.969 138.2 395.279 136.39C396.929 135.48 398.239 134.82 399.129 134.38C399.559 134.17 399.889 134.01 400.149 133.89C400.379 133.78 400.499 133.73 400.499 133.74C400.499 133.75 400.389 133.82 400.169 133.94C399.919 134.07 399.589 134.25 399.179 134.48C398.309 134.95 397.019 135.64 395.379 136.57C392.109 138.43 387.449 141.29 382.139 145.45C379.479 147.52 376.659 149.91 373.679 152.54C370.699 155.17 367.539 158 364.319 161.1C361.109 164.2 357.829 167.56 354.709 171.29C353.149 173.15 351.669 175.13 350.169 177.16C348.669 179.18 347.159 181.24 345.619 183.31C339.499 191.64 333.929 199.77 329.489 207.55C325.029 215.32 327.269 212.03 325.069 218.44" fill="#3E5426"/>
<path d="M354.459 170.98C354.419 170.98 354.429 170.54 354.469 169.74C354.509 168.94 354.599 167.79 354.729 166.37C354.989 163.53 355.479 159.62 356.049 155.31C356.609 151 357.049 147.09 357.269 144.25C357.379 142.83 357.459 141.68 357.509 140.89C357.559 140.09 357.599 139.65 357.639 139.65C357.679 139.65 357.699 140.09 357.709 140.89C357.729 141.69 357.699 142.84 357.639 144.27C357.519 147.12 357.139 151.05 356.569 155.37C356.009 159.62 355.489 163.47 355.099 166.41C354.929 167.74 354.789 168.86 354.679 169.76C354.569 170.54 354.499 170.98 354.459 170.98Z" fill="#3E5426"/>
<path d="M391.529 172.75C391.519 172.79 390.999 172.72 390.069 172.58C389.139 172.45 387.799 172.24 386.129 172.05C382.799 171.63 378.169 171.21 373.039 170.98C367.909 170.75 363.269 170.74 359.899 170.83C358.219 170.86 356.859 170.93 355.919 170.96C354.979 171 354.459 171.01 354.449 170.97C354.449 170.93 354.959 170.86 355.899 170.75C356.839 170.65 358.199 170.53 359.879 170.45C363.249 170.26 367.909 170.21 373.049 170.44C378.189 170.68 382.829 171.16 386.159 171.67C387.829 171.91 389.169 172.17 390.089 172.37C391.039 172.59 391.539 172.71 391.529 172.75Z" fill="#3E5426"/>
<path d="M329.66 206.76C329.64 206.76 329.59 206.6 329.52 206.27C329.44 205.88 329.34 205.41 329.22 204.84C328.96 203.6 328.64 201.79 328.26 199.56C327.51 195.09 326.67 188.88 325.83 182.01C324.99 175.14 324.21 168.93 323.56 164.45C323.24 162.27 322.97 160.48 322.77 159.14C322.69 158.56 322.62 158.09 322.56 157.69C322.52 157.36 322.5 157.18 322.52 157.18C322.54 157.18 322.59 157.35 322.66 157.67C322.74 158.06 322.84 158.53 322.96 159.1C323.22 160.34 323.54 162.15 323.92 164.38C324.67 168.85 325.51 175.06 326.35 181.93C327.19 188.8 327.97 195 328.62 199.49C328.95 201.67 329.21 203.46 329.41 204.8C329.49 205.38 329.56 205.86 329.62 206.25C329.66 206.58 329.68 206.76 329.66 206.76Z" fill="#3E5426"/>
<path d="M380.43 202.73C380.43 202.75 380.25 202.78 379.92 202.81C379.52 202.85 379.03 202.89 378.44 202.94C377.08 203.05 375.24 203.2 373 203.38C368.41 203.75 362.07 204.34 355.07 205C348.07 205.66 341.72 206.19 337.12 206.47C334.82 206.61 332.96 206.7 331.67 206.74C331.08 206.75 330.58 206.77 330.19 206.78C329.85 206.78 329.67 206.77 329.67 206.76C329.67 206.74 329.85 206.71 330.18 206.68C330.58 206.64 331.07 206.6 331.66 206.55C333.02 206.44 334.86 206.29 337.1 206.11C341.69 205.74 348.03 205.15 355.03 204.49C362.03 203.83 368.38 203.3 372.98 203.02C375.28 202.88 377.14 202.79 378.43 202.75C379.03 202.74 379.51 202.72 379.91 202.71C380.25 202.71 380.43 202.71 380.43 202.73Z" fill="#3E5426"/>
<path d="M419.811 304.5C419.821 304.5 419.761 304.66 419.641 304.97C419.501 305.3 419.321 305.74 419.091 306.3C418.581 307.5 417.861 309.19 416.961 311.33C415.081 315.68 412.431 321.82 409.251 329.16L409.201 329.27L409.081 329.29C401.971 330.46 393.681 331.83 384.861 333.29C382.101 333.74 379.381 334.19 376.741 334.62L376.371 334.68L376.461 334.32C378.431 326.53 380.251 319.36 381.801 313.27L381.911 313.5C376.001 310.86 371.121 308.68 367.681 307.14C366.011 306.38 364.691 305.78 363.751 305.35C363.321 305.15 362.991 304.99 362.731 304.87C362.501 304.76 362.381 304.7 362.391 304.69C362.391 304.68 362.521 304.72 362.761 304.82C363.031 304.93 363.371 305.07 363.811 305.25C364.761 305.65 366.091 306.22 367.781 306.94C371.241 308.44 376.141 310.57 382.081 313.14L382.241 313.21L382.201 313.38C380.681 319.48 378.891 326.66 376.951 334.46L376.671 334.16C379.311 333.73 382.021 333.28 384.791 332.83C393.611 331.4 401.911 330.05 409.021 328.89L408.861 329.02C412.101 321.71 414.811 315.6 416.731 311.26C417.681 309.14 418.441 307.47 418.981 306.28C419.231 305.73 419.441 305.3 419.591 304.97C419.721 304.65 419.801 304.5 419.811 304.5Z" fill="#BCF1F8"/>
<path d="M379.6 331.75L378.93 333.49L379.99 335.03L378.13 334.94L377 336.42L376.51 334.62L374.75 334L376.31 332.98L376.36 331.12L377.81 332.29L379.6 331.75Z" fill="#BCF1F8"/>
<path d="M362.971 303.5L362.641 304.37L363.161 305.13L362.241 305.08L361.681 305.82L361.431 304.93L360.561 304.62L361.331 304.11L361.351 303.18L362.081 303.76L362.971 303.5Z" fill="#BCF1F8"/>
<path d="M409.941 328.07L409.611 328.93L410.131 329.7L409.211 329.65L408.651 330.39L408.401 329.49L407.531 329.19L408.301 328.68L408.331 327.75L409.051 328.33L409.941 328.07Z" fill="#BCF1F8"/>
<path d="M382.83 312.47L382.5 313.33L383.03 314.1L382.1 314.05L381.54 314.79L381.3 313.89L380.42 313.59L381.2 313.08L381.22 312.15L381.94 312.73L382.83 312.47Z" fill="#BCF1F8"/>
<path d="M420.941 303.64L420.611 304.5L421.141 305.26L420.211 305.22L419.651 305.96L419.411 305.06L418.531 304.76L419.311 304.25L419.331 303.32L420.051 303.9L420.941 303.64Z" fill="#BCF1F8"/>
<path d="M117.84 376.41H170.19C170.19 376.41 165.56 367.99 152.09 369.21C139.22 370.38 138.57 365.07 132.02 364.41C125.48 363.75 120.03 368.77 117.84 376.41Z" fill="#BCF1F8"/>
<path d="M128.24 170.29H180.59C180.59 170.29 175.96 161.87 162.49 163.09C149.62 164.26 148.97 158.95 142.42 158.29C135.87 157.64 130.42 162.66 128.24 170.29Z" fill="#D3FAFF"/>
<path d="M394.119 206.7H437.129C437.129 206.7 433.329 199.78 422.249 200.79C411.679 201.75 411.139 197.38 405.759 196.85C400.389 196.3 395.909 200.43 394.119 206.7Z" fill="#D3FAFF"/>
<path d="M308.229 291.59C310.369 275.47 299.029 262.17 284.869 254.18C270.709 246.19 254.279 243.51 238.639 239.07C223.889 234.88 209.219 228.76 198.289 218C187.359 207.24 180.809 191.07 184.739 176.24C185.729 172.52 187.489 168.78 190.679 166.63C193.879 164.48 198.759 164.54 201.139 167.56C206.219 174 196.319 185.53 202.519 190.9C203.939 192.13 205.899 192.59 207.369 193.76C211.289 196.88 210.019 202.96 210.569 207.94C211.659 217.79 220.899 224.63 229.969 228.62C242.119 233.96 255.279 236.48 268.169 239.65C281.059 242.82 294.049 246.81 304.789 254.61C315.529 262.41 324.839 274.62 324.769 287.89C324.749 291.6 324.279 296.16 321.949 299.05C319.619 301.94 316.659 302.54 313.299 300.96C309.959 299.39 307.609 296.95 308.229 291.59Z" fill="#40E5F9"/>
<g opacity="0.8">
<path d="M308.229 291.59C310.369 275.47 299.029 262.17 284.869 254.18C270.709 246.19 254.279 243.51 238.639 239.07C223.889 234.88 209.219 228.76 198.289 218C187.359 207.24 180.809 191.07 184.739 176.24C185.729 172.52 187.489 168.78 190.679 166.63C193.879 164.48 198.759 164.54 201.139 167.56C206.219 174 196.319 185.53 202.519 190.9C203.939 192.13 205.899 192.59 207.369 193.76C211.289 196.88 210.019 202.96 210.569 207.94C211.659 217.79 220.899 224.63 229.969 228.62C242.119 233.96 255.279 236.48 268.169 239.65C281.059 242.82 294.049 246.81 304.789 254.61C315.529 262.41 324.839 274.62 324.769 287.89C324.749 291.6 324.279 296.16 321.949 299.05C319.619 301.94 316.659 302.54 313.299 300.96C309.959 299.39 307.609 296.95 308.229 291.59Z" fill="white"/>
</g>
<path d="M239.729 163.47C239.219 157.5 243.669 152.3 248.729 149.51C253.789 146.72 259.579 145.59 264.799 143.12C277.749 136.98 285.979 122.54 286.589 107.72C287.199 92.9 280.779 78.1 270.729 67.21C266.649 62.79 261.619 58.16 261.559 52.12C261.499 45.82 267.599 40.86 273.699 40.94C279.799 41.02 285.419 45.1 289.069 50.24C292.719 55.38 294.739 61.5 296.709 67.5C295.309 64.99 298.189 61.88 300.959 62.14C303.729 62.41 305.919 64.72 307.629 67.02C314.979 76.91 318.609 89.62 317.599 101.86C316.589 114.1 310.929 125.75 302.099 133.81C292.229 142.8 279.179 147.02 266.529 151.01C257.719 153.79 248.919 156.57 240.109 159.35" fill="#40E5F9"/>
<g opacity="0.8">
<path d="M239.729 163.47C239.219 157.5 243.669 152.3 248.729 149.51C253.789 146.72 259.579 145.59 264.799 143.12C277.749 136.98 285.979 122.54 286.589 107.72C287.199 92.9 280.779 78.1 270.729 67.21C266.649 62.79 261.619 58.16 261.559 52.12C261.499 45.82 267.599 40.86 273.699 40.94C279.799 41.02 285.419 45.1 289.069 50.24C292.719 55.38 294.739 61.5 296.709 67.5C295.309 64.99 298.189 61.88 300.959 62.14C303.729 62.41 305.919 64.72 307.629 67.02C314.979 76.91 318.609 89.62 317.599 101.86C316.589 114.1 310.929 125.75 302.099 133.81C292.229 142.8 279.179 147.02 266.529 151.01C257.719 153.79 248.919 156.57 240.109 159.35" fill="white"/>
</g>
<path d="M232.378 38.02C229.758 39.12 228.318 42.45 229.308 45.12C230.298 47.79 233.558 49.37 236.268 48.5C238.978 47.63 240.698 44.44 239.948 41.69C239.198 38.94 236.088 37.09 233.308 37.72" fill="#40E5F9"/>
<g opacity="0.8">
<path d="M232.378 38.02C229.758 39.12 228.318 42.45 229.308 45.12C230.298 47.79 233.558 49.37 236.268 48.5C238.978 47.63 240.698 44.44 239.948 41.69C239.198 38.94 236.088 37.09 233.308 37.72" fill="white"/>
</g>
<path d="M264.949 423.34C261.709 416.63 264.529 408.26 269.689 402.88C274.849 397.5 281.889 394.43 288.719 391.43C303.769 384.8 319.709 376.9 327.369 362.34C329.949 357.43 331.419 352.03 332.869 346.67C335.679 336.31 338.309 324.54 332.659 315.41C331.029 312.78 328.589 310.45 325.549 309.91C322.089 309.3 318.529 311.2 316.389 314C314.259 316.79 313.339 320.34 312.899 323.82C312.059 330.46 312.759 337.21 312.059 343.86C311.359 350.51 308.929 357.47 303.439 361.3C296.779 365.95 287.269 364.9 280.789 369.81C275.559 373.77 273.569 380.65 269.489 385.78C266.049 390.09 261.249 393.04 256.839 396.35C252.439 399.67 248.179 403.71 246.679 409.02C245.129 414.53 247.069 420.87 251.449 424.56C255.829 428.25 262.399 429.1 267.569 426.64" fill="#9BFF36"/>
<g opacity="0.8">
<path d="M264.949 423.34C261.709 416.63 264.529 408.26 269.689 402.88C274.849 397.5 281.889 394.43 288.719 391.43C303.769 384.8 319.709 376.9 327.369 362.34C329.949 357.43 331.419 352.03 332.869 346.67C335.679 336.31 338.309 324.54 332.659 315.41C331.029 312.78 328.589 310.45 325.549 309.91C322.089 309.3 318.529 311.2 316.389 314C314.259 316.79 313.339 320.34 312.899 323.82C312.059 330.46 312.759 337.21 312.059 343.86C311.359 350.51 308.929 357.47 303.439 361.3C296.779 365.95 287.269 364.9 280.789 369.81C275.559 373.77 273.569 380.65 269.489 385.78C266.049 390.09 261.249 393.04 256.839 396.35C252.439 399.67 248.179 403.71 246.679 409.02C245.129 414.53 247.069 420.87 251.449 424.56C255.829 428.25 262.399 429.1 267.569 426.64" fill="white"/>
</g>
<path d="M164.829 84.36C159.529 80.43 156.289 73.85 156.409 67.25C156.529 60.65 159.999 54.2 165.429 50.45C168.499 48.33 172.149 47.04 174.879 44.5C177.309 42.24 178.889 39.11 181.609 37.21C184.989 34.85 189.889 34.95 193.169 37.46C196.449 39.96 197.839 44.66 196.449 48.55C195.199 52.06 192.049 54.62 190.729 58.11C189.309 61.86 190.229 66.07 189.699 70.04C189.049 74.93 186.079 79.46 181.859 82C177.639 84.54 172.249 85.05 167.619 83.33" fill="#49C8D9"/>
<g opacity="0.8">
<path d="M164.829 84.36C159.529 80.43 156.289 73.85 156.409 67.25C156.529 60.65 159.999 54.2 165.429 50.45C168.499 48.33 172.149 47.04 174.879 44.5C177.309 42.24 178.889 39.11 181.609 37.21C184.989 34.85 189.889 34.95 193.169 37.46C196.449 39.96 197.839 44.66 196.449 48.55C195.199 52.06 192.049 54.62 190.729 58.11C189.309 61.86 190.229 66.07 189.699 70.04C189.049 74.93 186.079 79.46 181.859 82C177.639 84.54 172.249 85.05 167.619 83.33" fill="white"/>
</g>
<path d="M172.089 93.66H170.629C167.639 93.66 165.219 91.24 165.219 88.25V62.92H177.499V88.26C177.499 91.24 175.079 93.66 172.089 93.66Z" fill="#49C8D9"/>
<path d="M165.209 62.92L171.359 51.65L177.499 62.92H165.209Z" fill="#FFBE9D"/>
<path d="M168.92 56.11C168.92 56.11 170.79 58.92 173.79 56.11L171.36 51.65L168.92 56.11Z" fill="#49C8D9"/>
<path d="M177.67 87.02C177.67 87.16 174.87 87.27 171.42 87.27C167.97 87.27 165.17 87.16 165.17 87.02C165.17 86.88 167.97 86.77 171.42 86.77C174.87 86.77 177.67 86.88 177.67 87.02Z" fill="#263238"/>
<path d="M177.539 85.13C177.539 85.27 174.799 85.38 171.419 85.38C168.039 85.38 165.299 85.27 165.299 85.13C165.299 84.99 168.039 84.88 171.419 84.88C174.799 84.89 177.539 85 177.539 85.13Z" fill="#263238"/>
<path d="M168.82 63.1C168.96 63.1 169.07 68.01 169.07 74.06C169.07 80.11 168.96 85.02 168.82 85.02C168.68 85.02 168.57 80.12 168.57 74.06C168.57 68 168.68 63.1 168.82 63.1Z" fill="#FAFAFA"/>
<path d="M173.789 63.1C173.929 63.1 174.039 68.01 174.039 74.06C174.039 80.11 173.929 85.02 173.789 85.02C173.649 85.02 173.539 80.12 173.539 74.06C173.539 68 173.649 63.1 173.789 63.1Z" fill="#FAFAFA"/>
<path d="M271.98 409.22L327.82 411.61L329.17 414.86L292.57 474.26L226.51 472.33L271.98 409.22Z" fill="#06A5B8"/>
<path d="M224.01 466.54L290.47 470.34L325.18 416.47L300.8 418.45L239.11 440.17L224.01 466.54Z" fill="#E0E0E0"/>
<path d="M214.67 462.55L275.7 463.51C273.16 455.7 279.14 444.71 287.35 441.01C292.79 438.56 303.02 435.38 308.3 432.67C318.33 427.52 327.4 417.78 326.61 409.41L301.54 408.61L269.55 407.37C266.88 415.31 261.15 420.5 252.45 423.63C244.67 426.43 235.81 426.42 228.21 429.6C215.99 434.73 210.12 451.32 214.67 462.55Z" fill="#EBEBEB"/>
<path d="M214.67 462.55C214.67 462.55 214.61 462.42 214.52 462.16C214.42 461.88 214.28 461.49 214.1 460.98C213.89 460.47 213.76 459.79 213.58 459C213.36 458.21 213.29 457.28 213.16 456.22C213.01 454.11 213.03 451.47 213.64 448.46C214.26 445.47 215.44 442.09 217.55 438.77C218.1 437.96 218.62 437.09 219.31 436.32C219.64 435.92 219.95 435.5 220.31 435.11C220.68 434.73 221.06 434.35 221.44 433.97C221.81 433.57 222.23 433.22 222.66 432.87C223.09 432.52 223.51 432.15 223.97 431.82C224.93 431.22 225.85 430.52 226.94 430.05C231.17 427.92 236.22 427.02 241.48 426.07C244.12 425.59 246.83 425.09 249.56 424.34C252.28 423.57 255.01 422.54 257.6 421.1C258.9 420.39 260.16 419.57 261.36 418.64C262.56 417.72 263.68 416.67 264.69 415.49C266.74 413.17 268.29 410.35 269.33 407.31L269.39 407.15L269.56 407.16C278.06 407.48 286.97 407.82 296.22 408.18C305.46 408.54 315.03 408.79 324.83 409.12C325.43 409.14 326.03 409.16 326.62 409.18L326.84 409.19L326.86 409.41C327.03 411.34 326.68 413.27 326.05 415.05C325.77 415.96 325.33 416.8 324.93 417.65C324.46 418.46 324.02 419.29 323.47 420.05C321.39 423.16 318.72 425.76 315.91 428.04C313.07 430.31 309.99 432.19 306.79 433.68C303.57 435.13 300.31 436.31 297.12 437.49C293.93 438.67 290.77 439.79 287.77 441.09C286.3 441.77 284.89 442.56 283.66 443.58C283.01 444.04 282.47 444.63 281.88 445.15C281.36 445.74 280.78 446.27 280.31 446.9C278.34 449.32 276.86 452.06 276.04 454.92C275.18 457.76 275.08 460.77 275.89 463.46L275.97 463.73H275.69C257.2 463.4 241.95 463.13 231.31 462.94C226 462.83 221.85 462.75 219 462.69C217.59 462.65 216.52 462.63 215.77 462.61C215.05 462.57 214.67 462.55 214.67 462.55C214.67 462.55 215.05 462.54 215.78 462.54C216.52 462.54 217.6 462.55 219.01 462.56C221.86 462.59 226.01 462.64 231.32 462.7C241.97 462.85 257.22 463.06 275.71 463.31L275.51 463.58C274.66 460.8 274.76 457.7 275.64 454.8C276.47 451.87 277.97 449.08 279.97 446.62C280.44 445.98 281.03 445.43 281.56 444.83C282.16 444.3 282.71 443.7 283.38 443.23C284.63 442.18 286.08 441.37 287.58 440.67C290.6 439.35 293.76 438.23 296.95 437.04C300.14 435.86 303.39 434.67 306.58 433.24C309.75 431.77 312.79 429.9 315.6 427.66C318.38 425.4 321.01 422.83 323.06 419.77C323.6 419.03 324.03 418.21 324.49 417.42C324.88 416.59 325.3 415.77 325.58 414.89C326.18 413.16 326.52 411.3 326.36 409.46L326.6 409.68C326.01 409.66 325.41 409.64 324.81 409.62C315.01 409.29 305.44 409.04 296.2 408.67C286.96 408.31 278.04 407.96 269.54 407.63L269.77 407.47C268.71 410.56 267.13 413.44 265.03 415.8C264 416.99 262.85 418.06 261.63 419C260.42 419.95 259.14 420.78 257.81 421.49C255.18 422.94 252.41 423.97 249.67 424.75C246.92 425.5 244.19 426 241.55 426.47C236.29 427.41 231.26 428.29 227.09 430.38C226.02 430.84 225.1 431.53 224.16 432.11C223.71 432.44 223.29 432.8 222.87 433.14C222.44 433.48 222.02 433.82 221.66 434.22C221.28 434.6 220.91 434.97 220.54 435.34C220.18 435.72 219.88 436.14 219.55 436.53C218.87 437.3 218.35 438.15 217.8 438.95C215.69 442.22 214.5 445.56 213.86 448.53C213.23 451.51 213.18 454.13 213.31 456.23C213.43 457.28 213.49 458.21 213.69 459C213.86 459.79 213.97 460.46 214.17 460.98C214.33 461.49 214.46 461.89 214.55 462.17C214.64 462.41 214.67 462.55 214.67 462.55Z" fill="#06A5B8"/>
<path d="M286.69 408.37C286.65 408.36 286.77 407.98 286.83 407.28C286.88 406.59 286.84 405.55 286.35 404.4C285.88 403.27 284.94 402.01 283.47 401.31C282.01 400.61 280.09 400.46 278.33 401.13C276.56 401.78 275.28 403.22 274.61 404.71C273.92 406.2 273.82 407.74 274.02 408.96C274.22 410.19 274.69 411.12 275.06 411.71C275.44 412.3 275.72 412.58 275.69 412.61C275.67 412.63 275.34 412.39 274.9 411.82C274.46 411.25 273.93 410.31 273.67 409.02C273.42 407.75 273.47 406.11 274.19 404.52C274.87 402.94 276.23 401.37 278.15 400.67C280.04 399.96 282.11 400.13 283.67 400.91C285.26 401.69 286.23 403.07 286.68 404.28C287.15 405.51 287.14 406.6 287.03 407.31C286.97 407.67 286.9 407.94 286.83 408.12C286.75 408.29 286.71 408.37 286.69 408.37Z" fill="#06A5B8"/>
<path d="M296.26 408.37C296.22 408.36 296.34 407.98 296.4 407.28C296.45 406.59 296.41 405.55 295.92 404.4C295.45 403.27 294.51 402.01 293.03 401.31C291.57 400.61 289.65 400.46 287.89 401.13C286.12 401.78 284.84 403.22 284.18 404.71C283.49 406.2 283.39 407.74 283.59 408.96C283.79 410.19 284.26 411.12 284.63 411.71C285.01 412.3 285.29 412.58 285.26 412.61C285.24 412.63 284.91 412.39 284.47 411.82C284.03 411.25 283.5 410.31 283.24 409.02C282.99 407.75 283.04 406.11 283.76 404.52C284.44 402.94 285.8 401.37 287.72 400.67C289.61 399.96 291.68 400.13 293.24 400.91C294.83 401.69 295.8 403.07 296.25 404.28C296.72 405.51 296.71 406.6 296.6 407.31C296.54 407.67 296.47 407.94 296.4 408.12C296.32 408.29 296.27 408.37 296.26 408.37Z" fill="#06A5B8"/>
<path d="M303.52 408.87C303.47 408.86 303.58 408.47 303.6 407.77C303.61 407.07 303.51 406.04 302.96 404.92C302.43 403.81 301.42 402.61 299.9 402C298.41 401.38 296.47 401.34 294.76 402.11C293.03 402.86 291.83 404.37 291.25 405.89C290.64 407.42 290.64 408.96 290.9 410.17C291.17 411.39 291.69 412.29 292.1 412.85C292.51 413.42 292.81 413.69 292.78 413.72C292.76 413.74 292.42 413.52 291.95 412.97C291.48 412.42 290.89 411.52 290.56 410.25C290.23 408.99 290.2 407.36 290.82 405.73C291.41 404.11 292.68 402.47 294.55 401.66C296.4 400.84 298.47 400.89 300.07 401.59C301.7 402.28 302.75 403.6 303.27 404.79C303.81 405.99 303.86 407.08 303.79 407.8C303.75 408.16 303.69 408.44 303.63 408.62C303.58 408.78 303.54 408.87 303.52 408.87Z" fill="#06A5B8"/>
<path d="M311.31 409.31C311.26 409.3 311.35 408.91 311.33 408.21C311.31 407.51 311.15 406.49 310.54 405.4C309.95 404.32 308.88 403.17 307.33 402.64C305.81 402.1 303.88 402.17 302.2 403.02C300.51 403.86 299.4 405.44 298.9 406.98C298.37 408.54 298.45 410.08 298.78 411.27C299.11 412.47 299.68 413.34 300.12 413.89C300.56 414.44 300.87 414.69 300.84 414.72C300.83 414.74 300.47 414.54 299.97 414.02C299.47 413.5 298.84 412.63 298.44 411.38C298.05 410.14 297.93 408.51 298.46 406.85C298.96 405.21 300.14 403.5 301.97 402.59C303.78 401.67 305.84 401.62 307.48 402.22C309.15 402.82 310.26 404.09 310.84 405.24C311.44 406.41 311.55 407.5 311.52 408.22C311.5 408.58 311.46 408.86 311.41 409.04C311.36 409.22 311.33 409.31 311.31 409.31Z" fill="#06A5B8"/>
<path d="M319.11 409.13C319.06 409.12 319.14 408.73 319.1 408.03C319.06 407.34 318.87 406.31 318.23 405.24C317.61 404.18 316.51 403.06 314.95 402.57C313.41 402.07 311.48 402.19 309.83 403.09C308.16 403.98 307.1 405.58 306.64 407.14C306.16 408.71 306.28 410.25 306.64 411.43C307.01 412.62 307.6 413.48 308.05 414.01C308.51 414.55 308.82 414.79 308.8 414.82C308.79 414.84 308.43 414.65 307.91 414.14C307.4 413.63 306.74 412.78 306.31 411.54C305.88 410.31 305.72 408.69 306.2 407.01C306.66 405.35 307.79 403.61 309.59 402.65C311.37 401.68 313.44 401.57 315.09 402.13C316.77 402.68 317.92 403.92 318.53 405.06C319.16 406.21 319.31 407.3 319.29 408.02C319.28 408.38 319.25 408.66 319.2 408.85C319.16 409.03 319.13 409.13 319.11 409.13Z" fill="#06A5B8"/>
<path d="M325.69 410C325.64 409.99 325.73 409.6 325.72 408.9C325.71 408.2 325.56 407.17 324.96 406.08C324.38 405 323.33 403.84 321.79 403.29C320.27 402.73 318.34 402.78 316.65 403.61C314.95 404.43 313.82 405.99 313.3 407.53C312.76 409.08 312.81 410.62 313.13 411.82C313.45 413.03 314 413.9 314.44 414.45C314.87 415 315.18 415.26 315.15 415.29C315.14 415.31 314.78 415.11 314.29 414.58C313.8 414.05 313.17 413.17 312.79 411.92C312.41 410.68 312.31 409.05 312.86 407.39C313.38 405.75 314.58 404.06 316.42 403.17C318.24 402.27 320.31 402.24 321.94 402.87C323.6 403.49 324.7 404.77 325.27 405.93C325.86 407.11 325.96 408.2 325.91 408.92C325.89 409.28 325.84 409.56 325.79 409.74C325.74 409.91 325.71 410.01 325.69 410Z" fill="#06A5B8"/>
<path d="M354.449 205.15C351.819 205.08 349.039 205.17 346.179 205.52C328.949 207.66 316.109 222.46 316.139 239.82C316.149 244.88 316.689 250.53 318.279 256.17C323.089 273.23 324.569 288.26 324.019 295.58L340.119 304.23C340.119 304.23 347.569 293.52 354.769 288.91C361.969 284.29 385.929 271.95 395.419 259.25C401.539 251.07 402.709 234.28 388.129 219.59C379.219 210.62 367.089 205.51 354.449 205.15Z" fill="#E6C619"/>
<path d="M316.399 314.21L330.939 322.07L321.479 334.09L311.779 329.69L316.399 314.21Z" fill="#455A64"/>
<path d="M317.11 314.7C316.98 314.65 318.42 310.34 320.33 305.06C322.24 299.78 323.89 295.54 324.02 295.59C324.15 295.64 322.71 299.95 320.8 305.23C318.89 310.5 317.24 314.74 317.11 314.7Z" fill="#263238"/>
<path d="M330.03 321.48C329.91 321.41 332.19 317.33 335.12 312.37C338.05 307.41 340.52 303.45 340.64 303.52C340.76 303.59 338.48 307.67 335.55 312.63C332.61 317.59 330.14 321.55 330.03 321.48Z" fill="#263238"/>
<g opacity="0.4">
<path d="M359.3 205.61C358.65 205.65 350.65 215.01 347.11 221.35C335.2 242.68 334.67 263.43 331.36 287.63C330.89 291.09 329.17 298.54 329.2 298.37C330.96 299.75 336.88 302.5 336.88 302.5C336.88 302.5 342.46 295.76 344.68 292.37C353.57 278.79 363.21 268.21 370.82 253.88C378.43 239.55 385.75 226.84 378.71 212.22C378.72 212.22 366.52 205.2 359.3 205.61Z" fill="black"/>
</g>
<path d="M395.479 261.4C395.469 261.4 395.399 261.25 395.269 260.94C395.139 260.64 394.979 260.17 394.709 259.59C394.189 258.43 393.329 256.75 391.899 254.86C390.469 252.99 388.469 250.87 385.719 249.1C383.019 247.28 379.529 245.84 375.589 245.35L375.489 245.34L375.429 245.26C373.579 242.77 371.459 240.19 368.929 237.8C366.409 235.42 363.459 233.23 360.059 231.69C356.669 230.18 353.019 229.51 349.579 229.69C346.139 229.86 342.909 230.96 340.409 232.75L340.269 232.85L340.139 232.73C337.149 230.1 333.569 228.74 330.339 228.38C327.089 228.01 324.209 228.6 322.009 229.44C319.799 230.28 318.229 231.36 317.229 232.13C316.729 232.52 316.349 232.84 316.109 233.07C315.859 233.29 315.729 233.4 315.719 233.39C315.709 233.38 315.829 233.25 316.059 233.01C316.289 232.77 316.649 232.43 317.139 232.01C318.129 231.19 319.679 230.07 321.919 229.18C324.139 228.29 327.069 227.65 330.389 228C333.689 228.34 337.359 229.7 340.439 232.39L340.159 232.38C342.719 230.53 346.039 229.39 349.569 229.2C353.089 229 356.819 229.68 360.279 231.23C363.739 232.79 366.729 235.02 369.279 237.44C371.829 239.86 373.959 242.47 375.799 244.98L375.649 244.89C379.679 245.41 383.209 246.91 385.929 248.78C388.699 250.61 390.699 252.78 392.119 254.69C393.529 256.62 394.359 258.33 394.849 259.52C395.099 260.11 395.229 260.59 395.339 260.9C395.439 261.24 395.489 261.4 395.479 261.4Z" fill="#263238"/>
<path d="M365.559 282.65C365.459 282.68 365.479 281.2 364.169 279.15C363.509 278.16 362.519 277.03 361.079 276.18C359.669 275.31 357.789 274.72 355.749 274.92L355.549 274.94L355.519 274.74C355.199 272.67 354.339 270.47 352.879 268.52C351.429 266.58 349.389 264.85 346.909 263.88C344.869 263.07 342.699 262.78 340.669 262.92C338.629 263.07 336.719 263.65 335.109 264.49L334.959 264.57L334.839 264.44C333.229 262.72 331.149 261.75 329.249 261.41C327.339 261.02 325.599 261.22 324.239 261.57C321.489 262.32 320.319 263.65 320.259 263.54C320.249 263.53 320.319 263.46 320.469 263.32C320.619 263.19 320.829 262.98 321.149 262.75C321.779 262.3 322.769 261.71 324.159 261.3C325.539 260.9 327.329 260.67 329.309 261.04C331.279 261.36 333.459 262.33 335.159 264.13L334.889 264.08C336.549 263.19 338.519 262.58 340.629 262.42C342.729 262.27 344.979 262.56 347.089 263.4C349.669 264.4 351.769 266.2 353.259 268.21C354.759 270.23 355.629 272.51 355.939 274.65L355.709 274.47C357.859 274.28 359.819 274.93 361.259 275.86C362.739 276.77 363.729 277.95 364.379 278.99C365.019 280.04 365.309 280.98 365.449 281.62C365.519 281.94 365.529 282.19 365.549 282.36C365.559 282.57 365.569 282.65 365.559 282.65Z" fill="#263238"/>
<path d="M328.129 325.86C328.089 325.89 327.969 325.66 327.599 325.51C327.229 325.35 326.619 325.33 325.899 325.56C325.529 325.66 325.109 325.79 324.609 325.8C324.109 325.81 323.559 325.57 323.169 325.17C322.399 324.37 322.099 323.2 321.379 322.4C321.019 322.01 320.539 321.8 320.039 321.84C319.539 321.86 319.029 322.03 318.519 322.14C318.019 322.26 317.489 322.34 316.999 322.22C316.509 322.12 316.119 321.88 315.809 321.61C315.189 321.07 314.919 320.43 314.849 319.99C314.769 319.55 314.849 319.3 314.869 319.3C314.909 319.3 314.909 319.54 315.039 319.94C315.159 320.33 315.459 320.88 316.029 321.33C316.319 321.55 316.669 321.74 317.079 321.81C317.479 321.89 317.929 321.82 318.409 321.69C318.889 321.57 319.409 321.38 320.019 321.34C320.629 321.29 321.309 321.57 321.739 322.05C322.589 323.01 322.849 324.16 323.499 324.84C323.819 325.18 324.209 325.37 324.619 325.38C325.029 325.4 325.429 325.29 325.809 325.22C326.569 325.02 327.279 325.09 327.679 325.34C328.089 325.57 328.149 325.86 328.129 325.86Z" fill="#263238"/>
<path d="M329.799 323.52C329.739 323.64 326.559 322.07 322.709 320.02C318.859 317.96 315.779 316.2 315.849 316.08C315.909 315.96 319.089 317.53 322.939 319.58C326.789 321.64 329.859 323.4 329.799 323.52Z" fill="#263238"/>
<path d="M326.908 327.19C326.918 327.23 326.708 327.29 326.358 327.45C326.178 327.53 325.978 327.65 325.698 327.76C325.418 327.88 325.058 327.92 324.698 327.89C323.968 327.84 323.078 327.61 322.298 326.97C321.918 326.66 321.588 326.2 321.388 325.71C321.178 325.24 321.008 324.75 320.688 324.4C320.028 323.69 318.948 323.61 318.058 323.64C317.138 323.67 316.238 323.7 315.528 323.4C314.828 323.11 314.408 322.61 314.248 322.23C314.088 321.84 314.138 321.6 314.168 321.6C314.208 321.59 314.228 321.82 314.418 322.14C314.608 322.46 315.018 322.85 315.648 323.07C316.278 323.29 317.098 323.24 318.038 323.18C318.948 323.13 320.178 323.15 321.058 324.06C321.468 324.52 321.638 325.06 321.838 325.51C322.028 325.97 322.278 326.33 322.608 326.62C323.268 327.2 324.068 327.45 324.738 327.54C325.408 327.66 325.898 327.38 326.298 327.27C326.678 327.16 326.908 327.16 326.908 327.19Z" fill="#263238"/>
<path d="M217.119 233.8L242.269 230.07L230.249 213.04L223.799 213.42C219.459 213.68 215.639 216.36 213.919 220.35C213.009 222.47 212.749 224.82 213.189 227.08L217.119 233.8Z" fill="#85D734"/>
<path opacity="0.4" d="M217.119 233.8L242.269 230.07L230.249 213.04L223.799 213.42C219.459 213.68 215.639 216.36 213.919 220.35C213.009 222.47 212.749 224.82 213.189 227.08L217.119 233.8Z" fill="black"/>
<path d="M325.139 261.66C325.399 262.38 325.679 263.23 325.969 264.25C326.219 265.13 326.298 266.04 326.238 266.94C326.168 268.04 326.009 269.5 325.669 270.27C325.259 271.22 326.219 272.18 327.029 271.71C327.839 271.23 329.049 268.63 328.969 265.29C328.899 261.94 332.308 265.95 333.578 267.39C334.848 268.83 338.988 273.1 339.738 273.06C340.838 273 340.978 271.81 339.678 270.4C338.358 268.97 334.769 264.49 335.559 263.86C336.339 263.24 342.708 270.65 342.708 270.65C342.708 270.65 343.809 272.46 344.749 271.75C346.449 270.48 339.099 263.1 338.379 262.41C337.879 261.93 338.719 261.21 339.229 261.75C339.749 262.31 345.408 269.3 347.148 268.02C348.478 267.04 341.159 261.89 340.789 259.79C340.419 257.69 345.948 264.26 347.178 263.28C347.638 262.91 347.929 262.58 344.219 259.26C342.419 257.65 335.559 252.85 335.559 252.85L314.919 193.75L298.979 202.88L325.139 261.66Z" fill="#FFBE9D"/>
<path d="M202.269 149.9L179.209 122.38C178.909 121.43 178.549 120.51 178.079 119.64C176.929 117.49 175.019 115.62 172.639 115.1C171.179 114.78 169.499 114.93 168.359 113.97C167.849 113.54 167.499 112.93 166.969 112.53C166.429 112.13 165.539 112.05 165.189 112.63C164.949 113.04 165.099 113.56 165.289 114C166.149 116.03 167.539 117.83 169.289 119.17C167.129 119.83 164.039 120.82 164.039 120.82C164.039 120.82 159.159 115.53 156.669 115.55C154.169 115.57 158.689 120.27 158.689 120.27C158.689 120.27 154.689 116.57 153.449 117.62C152.209 118.66 155.389 121.4 155.389 121.4C154.379 120.86 153.279 120.3 152.149 120.49C151.019 120.68 150.049 122.01 150.659 122.98C150.889 123.35 151.289 123.58 151.679 123.79C153.729 124.93 155.769 126.07 157.819 127.21C158.849 127.78 159.929 128.37 161.099 128.41C164.209 128.51 166.579 126.58 169.699 126.66C169.699 126.66 187.089 163.27 188.849 165.16C190.609 167.05 228.819 169.62 228.819 169.62L250.929 150.57L202.269 149.9Z" fill="#FFBE9D"/>
<path d="M271.549 349.33L295.099 359.59L282.489 388.96C279.759 387.58 280.649 369.97 280.649 369.97L265.289 364.02L271.549 349.33Z" fill="#85D734"/>
<g opacity="0.6">
<path d="M283.269 360.34C283.669 359.84 284.479 359.72 284.989 360.1C285.509 360.48 285.639 361.3 285.239 361.81C284.849 362.32 283.879 362.49 283.409 362.06C282.939 361.63 282.839 360.65 283.339 360.25" fill="white"/>
</g>
<path opacity="0.6" d="M295.1 359.58L292.69 358.64L281.5 387.15C281.5 387.15 281.51 388.7 282.49 388.95L295.1 359.58Z" fill="white"/>
<path d="M280.288 370.38C280.438 370.44 280.808 369.75 281.568 369.24C282.318 368.71 283.098 368.62 283.098 368.46C283.128 368.32 282.178 368.16 281.268 368.79C280.348 369.41 280.148 370.35 280.288 370.38Z" fill="#263238"/>
<path d="M280.24 374C280.36 374.09 280.88 373.58 281.69 373.35C282.5 373.1 283.21 373.26 283.26 373.11C283.34 372.98 282.54 372.52 281.53 372.83C280.53 373.12 280.11 373.94 280.24 374Z" fill="#263238"/>
<path d="M283.179 377.34C283.269 377.22 282.639 376.72 281.689 376.75C280.749 376.77 280.149 377.32 280.239 377.43C280.319 377.56 280.929 377.31 281.709 377.29C282.479 377.25 283.099 377.47 283.179 377.34Z" fill="#263238"/>
<path d="M276.939 368.63C277.099 368.63 277.179 367.88 277.579 367.1C277.969 366.3 278.509 365.79 278.419 365.66C278.349 365.53 277.559 365.92 277.089 366.85C276.629 367.78 276.799 368.65 276.939 368.63Z" fill="#263238"/>
<path d="M273.76 366.43C273.82 366.46 274.15 365.93 274.38 364.96C274.5 364.48 274.58 363.88 274.57 363.22C274.57 362.89 274.54 362.54 274.48 362.18C274.45 362.01 274.43 361.81 274.32 361.59C274.24 361.37 273.9 361.11 273.59 361.2C273.3 361.25 273.09 361.48 272.99 361.69C272.89 361.9 272.86 362.1 272.83 362.27C272.77 362.63 272.75 362.98 272.75 363.32C272.76 363.99 272.89 364.59 273.06 365.06C273.4 366.01 273.83 366.48 273.88 366.44C273.96 366.4 273.65 365.87 273.43 364.95C273.32 364.49 273.24 363.94 273.25 363.32C273.26 363.01 273.29 362.69 273.35 362.36C273.4 362.01 273.51 361.75 273.69 361.73C273.76 361.72 273.78 361.73 273.84 361.83C273.9 361.93 273.92 362.09 273.95 362.26C274.01 362.59 274.04 362.92 274.06 363.23C274.09 363.85 274.06 364.42 273.99 364.89C273.88 365.83 273.68 366.4 273.76 366.43Z" fill="#263238"/>
<path d="M274.04 366.34C274.08 366.3 273.69 365.79 272.79 365.34C272.34 365.12 271.76 364.93 271.09 364.85C270.76 364.81 270.4 364.81 270.04 364.84C269.68 364.89 269.2 364.93 268.89 365.46C268.75 365.75 268.88 366.08 269.04 366.25C269.2 366.43 269.36 366.52 269.51 366.63C269.83 366.83 270.17 366.97 270.5 367.06C271.16 367.24 271.79 367.2 272.29 367.08C273.3 366.83 273.73 366.31 273.68 366.28C273.63 366.2 273.14 366.58 272.22 366.71C271.77 366.77 271.21 366.76 270.64 366.58C270.36 366.49 270.07 366.36 269.8 366.19C269.51 366.01 269.31 365.78 269.39 365.68C269.45 365.53 269.79 365.39 270.09 365.37C270.42 365.33 270.74 365.33 271.04 365.35C271.65 365.39 272.19 365.53 272.63 365.7C273.52 366.02 273.99 366.4 274.04 366.34Z" fill="#263238"/>
<path d="M253.408 389.67L263.148 410.08L266.198 428.44C266.418 429.76 267.708 430.62 269.018 430.31C269.748 430.14 270.348 429.63 270.628 428.93C272.418 424.5 278.928 408.15 278.128 406.7C277.208 405.02 269.278 384.49 269.278 384.49L253.408 389.67Z" fill="#85D734"/>
<path opacity="0.6" d="M269.018 430.32L277.508 405.32L277.898 406.19C278.238 406.95 278.298 407.8 278.068 408.59C277.448 410.72 275.618 416.56 270.688 428.91C270.408 429.63 269.778 430.16 269.018 430.32Z" fill="white"/>
<g opacity="0.6">
<path d="M270.279 400.57C269.919 401.16 270.109 402.02 270.679 402.4C271.249 402.78 272.129 402.6 272.489 402.02C272.859 401.44 272.669 400.4 272.059 400.09C271.449 399.78 270.429 400.04 270.219 400.7" fill="white"/>
</g>
<path d="M269.678 419.19C269.588 419.3 268.638 418.43 267.148 418.4C265.658 418.33 264.648 419.13 264.568 419.01C264.528 418.97 264.718 418.69 265.168 418.4C265.618 418.11 266.338 417.87 267.168 417.9C267.988 417.93 268.698 418.23 269.128 418.54C269.558 418.86 269.718 419.15 269.678 419.19Z" fill="#263238"/>
<path d="M269.448 422.61C269.388 422.74 268.428 422.37 267.218 422.54C266.008 422.69 265.178 423.3 265.088 423.19C264.978 423.11 265.778 422.23 267.158 422.05C268.538 421.86 269.538 422.51 269.448 422.61Z" fill="#263238"/>
<path d="M270.819 414.42C270.769 414.56 269.289 413.98 267.389 414.09C265.489 414.17 264.079 414.89 264.009 414.75C263.929 414.65 265.329 413.68 267.369 413.59C269.409 413.48 270.899 414.32 270.819 414.42Z" fill="#263238"/>
<path d="M268.378 407.97C268.378 408.12 267.028 408.15 265.518 408.77C263.998 409.36 262.998 410.27 262.898 410.16C262.798 410.08 263.708 408.95 265.338 408.31C266.958 407.65 268.398 407.84 268.378 407.97Z" fill="#263238"/>
<path d="M265.668 401.9C265.658 402.05 264.208 401.88 262.668 402.65C261.118 403.39 260.368 404.65 260.238 404.57C260.188 404.54 260.298 404.18 260.648 403.69C260.998 403.2 261.618 402.61 262.448 402.2C263.278 401.79 264.128 401.66 264.718 401.68C265.328 401.71 265.678 401.85 265.668 401.9Z" fill="#263238"/>
<path d="M262.188 401.49C262.158 401.5 261.987 401.25 261.807 400.72C261.627 400.2 261.448 399.4 261.508 398.4C261.558 397.92 261.567 397.32 262.017 396.79C262.237 396.52 262.697 396.39 263.057 396.55C263.417 396.71 263.647 397.01 263.797 397.33C264.367 398.65 263.808 400.42 262.418 401.27C261.008 402.1 259.298 401.85 258.198 400.99C257.938 400.75 257.688 400.44 257.688 400.02C257.688 399.6 258.047 399.27 258.357 399.19C259.007 399.01 259.558 399.19 260.038 399.29C261.008 399.54 261.718 399.94 262.168 400.26C262.618 400.58 262.827 400.81 262.807 400.83C262.757 400.92 261.827 400.05 259.957 399.63C259.497 399.55 258.957 399.43 258.497 399.58C258.277 399.66 258.128 399.82 258.128 400.03C258.128 400.23 258.287 400.47 258.497 400.65C259.407 401.35 260.978 401.57 262.158 400.85C263.338 400.15 263.818 398.59 263.378 397.52C263.268 397.26 263.088 397.04 262.878 396.95C262.678 396.86 262.457 396.91 262.297 397.07C261.967 397.41 261.897 397.97 261.837 398.43C261.677 400.33 262.288 401.47 262.188 401.49Z" fill="#263238"/>
<path d="M286.229 351.82L259.519 333.84L268.359 247.05L243.059 232.28L219.929 226.92C219.929 226.92 210.269 247.02 205.969 259.89C196.829 287.26 190.419 297.06 191.879 316.9C192.339 323.18 215.529 338.88 230.169 347.61C230.369 349.61 230.629 351.36 230.949 352.81C235.949 375.43 251.219 405.5 251.219 405.5L274.429 394.71L266.939 369.06L274.739 373.61L286.229 351.82ZM228.819 295.85L231.939 281.94C231.279 290.79 230.679 300.01 230.249 308.86C228.749 304.78 228.239 300.23 228.819 295.85Z" fill="#263238"/>
<path d="M251.229 405.49C251.219 405.49 251.159 405.37 251.049 405.12C250.929 404.85 250.769 404.49 250.569 404.03C250.149 403.04 249.549 401.62 248.779 399.8C247.239 396.12 245.029 390.78 242.379 384.15C239.739 377.52 236.589 369.62 233.429 360.72C232.639 358.49 231.869 356.2 231.139 353.83C230.819 352.63 230.409 351.45 230.199 350.18C230.139 349.87 230.069 349.55 230.019 349.24L229.909 348.29C229.839 347.66 229.769 347.02 229.699 346.38C229.429 343.82 229.199 341.22 229.039 338.57C228.959 337.25 228.879 335.91 228.829 334.56C228.779 333.22 228.719 331.85 228.799 330.49C229.189 319.58 230.109 309.25 230.859 299.84C231.649 290.44 232.349 281.97 232.949 274.85C233.529 267.74 233.929 261.98 234.159 257.99C234.279 256 234.349 254.45 234.399 253.4C234.429 252.89 234.449 252.5 234.459 252.21C234.479 251.94 234.489 251.8 234.499 251.8C234.509 251.8 234.509 251.94 234.509 252.21C234.509 252.5 234.499 252.9 234.489 253.41C234.479 254.46 234.439 256.01 234.339 258.01C234.169 262 233.819 267.77 233.289 274.89C232.719 282.01 232.049 290.48 231.309 299.89C230.579 309.3 229.679 319.65 229.289 330.52C229.209 331.88 229.269 333.22 229.319 334.56C229.369 335.9 229.439 337.23 229.529 338.55C229.699 341.19 229.919 343.79 230.179 346.34C230.249 346.98 230.319 347.61 230.389 348.24L230.499 349.18C230.549 349.49 230.619 349.79 230.679 350.1C230.879 351.32 231.279 352.51 231.599 353.7C232.319 356.06 233.079 358.35 233.869 360.57C237.009 369.46 240.119 377.37 242.719 384.02C245.349 390.63 247.489 395.99 248.979 399.72C249.709 401.55 250.289 402.99 250.689 403.99C250.869 404.46 251.019 404.83 251.129 405.1C251.189 405.36 251.229 405.49 251.229 405.49Z" fill="#455A64"/>
<path d="M233.37 248.87C233.35 248.9 233.14 248.72 232.76 248.38C232.41 248.01 231.99 247.4 231.63 246.57C230.91 244.9 230.55 242.4 230.49 239.68C230.44 236.95 230.64 234.49 230.82 232.73C231 230.96 231.15 229.87 231.22 229.88C231.29 229.88 231.26 230.99 231.17 232.76C231.08 234.53 230.94 236.98 230.99 239.68C231.04 242.37 231.35 244.81 231.96 246.45C232.26 247.27 232.62 247.88 232.91 248.27C233.23 248.62 233.4 248.85 233.37 248.87Z" fill="#455A64"/>
<path d="M223.389 228.22C223.439 228.21 223.679 229.13 223.589 230.65C223.509 232.15 222.989 234.27 221.679 236.21C220.359 238.15 218.579 239.4 217.209 240.03C215.829 240.67 214.889 240.78 214.879 240.73C214.859 240.65 215.759 240.41 217.049 239.71C218.339 239.02 220.009 237.78 221.269 235.93C222.529 234.08 223.079 232.07 223.249 230.62C223.409 229.15 223.299 228.22 223.389 228.22Z" fill="#455A64"/>
<path d="M264.889 278.68C264.899 278.68 264.899 278.77 264.879 278.94C264.859 279.14 264.839 279.4 264.819 279.71C264.749 280.42 264.649 281.42 264.519 282.67C264.239 285.28 263.829 288.99 263.329 293.56C262.289 302.78 260.849 315.46 259.259 329.46C258.649 336.47 259.259 343.22 260.579 349.16C261.229 352.14 262.089 354.91 262.999 357.47C263.899 360.03 264.739 362.42 265.499 364.61C267.009 368.95 268.229 372.48 269.089 374.96C269.489 376.16 269.809 377.1 270.039 377.78C270.139 378.08 270.209 378.32 270.279 378.52C270.329 378.69 270.349 378.77 270.339 378.78C270.329 378.78 270.289 378.7 270.229 378.54C270.159 378.35 270.059 378.11 269.949 377.82C269.699 377.15 269.349 376.21 268.909 375.03C268.009 372.56 266.739 369.05 265.169 364.73C264.389 362.55 263.529 360.17 262.609 357.61C261.679 355.05 260.799 352.26 260.129 349.27C258.779 343.29 258.149 336.49 258.769 329.42C260.329 315.38 261.879 302.71 262.979 293.52C263.539 288.96 263.999 285.25 264.319 282.65C264.489 281.4 264.619 280.41 264.709 279.7C264.759 279.39 264.789 279.13 264.819 278.93C264.859 278.76 264.879 278.68 264.889 278.68Z" fill="#455A64"/>
<path d="M219.93 226.75L224.03 216.28L233.37 230.22L220.91 227.11" fill="#FFBE9D"/>
<path d="M317.75 195.28L306.66 170.41C305.33 166.41 302.85 165.79 300.76 163.47L272.97 147.8C252.72 139.5 241.69 167.33 241.69 167.33L223.28 209.32C201.63 216.5 216.96 233.12 216.96 233.12C216.96 233.12 211.07 222.88 216.86 219.19C222.92 215.32 229.65 225.51 236.11 235.19C243.74 246.61 268.52 254.03 268.52 254.03C271.42 250.97 270.61 240.28 272.88 234.54C273.6 232.72 290.76 192.97 290.76 192.97L297.41 209.09C297.41 209.09 305.94 199.09 310.07 197.5C314.19 195.92 317.75 195.28 317.75 195.28Z" fill="#85D734"/>
<path d="M268.511 212.96C268.531 212.99 268.231 213.21 267.671 213.55C267.101 213.89 266.251 214.33 265.141 214.75C262.941 215.6 259.611 216.25 256.011 215.7C252.401 215.14 249.431 213.51 247.591 212.04C246.661 211.31 245.981 210.63 245.541 210.14C245.101 209.64 244.891 209.35 244.921 209.33C244.991 209.26 245.921 210.4 247.811 211.77C249.671 213.14 252.591 214.68 256.101 215.22C259.611 215.76 262.851 215.18 265.041 214.43C267.231 213.67 268.461 212.88 268.511 212.96Z" fill="#263238"/>
<path d="M222.45 173.52L239.6 175.14L267.04 146.14L250.9 145.59L222.16 148.43C222.17 148.42 224.71 160.4 222.45 173.52Z" fill="#85D734"/>
<path d="M246.269 158.24C246.289 158.25 246.209 158.43 246.059 158.77C245.879 159.16 245.649 159.65 245.369 160.25C244.739 161.59 243.879 163.43 242.819 165.68C240.689 170.28 237.859 176.68 234.789 183.78C231.719 190.88 228.929 197.31 226.819 201.92C225.769 204.23 224.899 206.09 224.269 207.36C223.969 207.96 223.729 208.44 223.539 208.82C223.369 209.15 223.269 209.32 223.259 209.32C223.239 209.31 223.309 209.13 223.449 208.78C223.619 208.39 223.829 207.89 224.089 207.28C224.679 205.92 225.499 204.06 226.489 201.78C228.519 197.07 231.279 190.67 234.319 183.59C237.389 176.49 240.269 170.1 242.489 165.54C243.589 163.26 244.509 161.42 245.179 160.17C245.489 159.58 245.749 159.11 245.949 158.73C246.149 158.4 246.259 158.23 246.269 158.24Z" fill="#263238"/>
<path d="M298.62 166.67C298.67 166.75 297.6 167.31 296.15 168.54C295.42 169.15 294.63 169.97 293.83 170.94C293.06 171.93 292.3 173.09 291.65 174.39C291.03 175.7 290.59 177.01 290.29 178.23C290.02 179.46 289.87 180.58 289.84 181.53C289.77 183.43 289.99 184.61 289.9 184.63C289.87 184.64 289.79 184.35 289.69 183.81C289.63 183.54 289.58 183.22 289.56 182.83C289.53 182.45 289.47 182.01 289.49 181.52C289.47 180.55 289.59 179.39 289.84 178.12C290.12 176.86 290.56 175.51 291.2 174.16C291.86 172.82 292.65 171.64 293.47 170.64C294.31 169.66 295.14 168.85 295.92 168.26C296.29 167.94 296.67 167.72 296.99 167.5C297.31 167.28 297.6 167.12 297.84 167C298.33 166.76 298.6 166.64 298.62 166.67Z" fill="#263238"/>
<path d="M303.408 126.84L287.318 156.92C284.688 161.83 278.718 163.87 273.628 161.6C268.028 159.1 265.718 152.38 268.578 146.96C270.098 144.09 271.358 141.75 271.358 141.75C271.358 141.75 264.358 137.22 267.638 129.66C270.558 122.92 281.278 103.88 283.548 99.86L297.108 105.93C304.728 109.87 307.578 119.34 303.408 126.84Z" fill="#FFBE9D"/>
<path d="M271.398 141.63C271.398 141.63 275.978 144.14 282.448 143.23C282.448 143.23 277.708 147.6 270.508 143.57L271.398 141.63Z" fill="#EB996E"/>
<path d="M276.568 117.58C276.298 118.14 276.538 118.83 277.118 119.13C277.698 119.43 278.388 119.22 278.658 118.66C278.928 118.1 278.688 117.41 278.108 117.11C277.528 116.81 276.838 117.03 276.568 117.58Z" fill="#263238"/>
<path d="M276.627 116.63C276.697 116.83 277.777 116.59 278.937 117.11C280.097 117.61 280.677 118.59 280.867 118.5C280.957 118.47 280.937 118.15 280.687 117.72C280.447 117.29 279.937 116.75 279.217 116.43C278.497 116.11 277.767 116.11 277.307 116.22C276.827 116.33 276.587 116.53 276.627 116.63Z" fill="#263238"/>
<path d="M287.378 122.9C287.108 123.46 287.348 124.15 287.928 124.45C288.508 124.75 289.198 124.54 289.468 123.98C289.738 123.42 289.498 122.73 288.918 122.43C288.338 122.13 287.648 122.34 287.378 122.9Z" fill="#263238"/>
<path d="M287.889 121.92C287.959 122.12 289.039 121.88 290.199 122.4C291.359 122.9 291.939 123.88 292.129 123.79C292.219 123.75 292.199 123.44 291.949 123.01C291.709 122.58 291.199 122.04 290.479 121.72C289.759 121.4 289.029 121.4 288.569 121.51C288.089 121.63 287.849 121.83 287.889 121.92Z" fill="#263238"/>
<path d="M279.857 128.61C279.887 128.55 279.227 128.1 278.137 127.43C277.857 127.27 277.607 127.08 277.647 126.86C277.677 126.62 277.937 126.35 278.237 126.07C278.837 125.48 279.457 124.86 280.117 124.21C282.757 121.55 284.817 119.32 284.707 119.21C284.597 119.1 282.367 121.17 279.727 123.83C279.087 124.49 278.467 125.12 277.877 125.72C277.617 126.01 277.257 126.3 277.207 126.81C277.187 127.07 277.337 127.32 277.497 127.46C277.657 127.6 277.827 127.68 277.967 127.75C279.097 128.35 279.827 128.68 279.857 128.61Z" fill="#263238"/>
<path d="M282.898 130.93C282.718 130.83 282.148 132.09 280.678 132.5C279.208 132.91 277.938 132.17 277.848 132.35C277.798 132.42 278.038 132.73 278.598 132.99C279.138 133.26 280.028 133.44 280.928 133.19C281.828 132.94 282.438 132.33 282.708 131.84C282.988 131.34 282.988 130.97 282.898 130.93Z" fill="#263238"/>
<path d="M289.618 117.26C289.588 117.63 290.808 117.99 292.098 118.76C293.398 119.5 294.308 120.39 294.618 120.19C294.758 120.09 294.698 119.71 294.398 119.21C294.098 118.71 293.528 118.11 292.758 117.65C291.988 117.2 291.178 116.99 290.598 116.97C289.998 116.96 289.628 117.09 289.618 117.26Z" fill="#263238"/>
<path d="M278.548 113.47C278.638 113.82 279.548 113.91 280.518 114.32C281.498 114.7 282.208 115.29 282.518 115.1C282.658 115 282.648 114.68 282.408 114.28C282.168 113.88 281.678 113.41 281.008 113.14C280.338 112.87 279.668 112.85 279.208 112.97C278.748 113.08 278.518 113.3 278.548 113.47Z" fill="#263238"/>
<path d="M298.349 131.35C298.499 131.35 304.199 132.13 301.729 137.2C299.269 142.27 294.689 138.75 294.749 138.6C294.819 138.45 298.349 131.35 298.349 131.35Z" fill="#FFBE9D"/>
<path d="M297.238 137.43C297.268 137.42 297.298 137.53 297.408 137.68C297.518 137.82 297.748 137.98 298.058 138.01C298.688 138.07 299.548 137.44 300.018 136.54C300.258 136.09 300.368 135.6 300.388 135.16C300.418 134.71 300.298 134.34 300.058 134.16C299.818 133.97 299.548 134.04 299.418 134.15C299.278 134.26 299.268 134.38 299.238 134.37C299.218 134.38 299.168 134.23 299.308 134.04C299.378 133.95 299.498 133.86 299.658 133.82C299.828 133.78 300.028 133.82 300.208 133.93C300.588 134.15 300.758 134.68 300.748 135.16C300.758 135.66 300.638 136.21 300.368 136.72C299.838 137.73 298.848 138.43 298.018 138.28C297.618 138.2 297.368 137.95 297.278 137.75C297.188 137.56 297.218 137.43 297.238 137.43Z" fill="#EB996E"/>
<path d="M301.289 132.45C300.589 131.91 298.909 132.03 298.249 132.61C297.589 133.19 297.139 133.99 296.479 134.58C295.819 135.17 294.769 135.49 294.069 134.96C293.589 134.59 293.429 133.91 293.519 133.31C293.619 132.71 293.929 132.17 294.249 131.65C295.629 129.39 297.199 127.23 298.369 124.86C299.549 122.49 300.329 119.82 299.979 117.19C299.629 114.56 297.979 112 295.479 111.12C293.829 110.53 291.989 110.71 290.299 110.22C288.299 109.64 286.609 108.09 285.859 106.14C285.759 105.89 285.199 105 285.199 105C285.259 104.88 285.849 103.85 286.449 103.65C290.899 102.15 296.939 103.87 300.629 106.78C304.319 109.69 306.899 114.37 306.949 119.07C306.999 123.77 304.039 128.95 301.289 132.45Z" fill="#263238"/>
<path d="M301.339 131.95C302.749 129.56 305.029 127.82 306.769 125.66C308.509 123.5 309.709 120.45 308.469 117.97C308.049 117.12 307.369 116.41 307.009 115.53C306.649 114.65 306.649 113.67 306.519 112.72C306.099 109.8 304.249 107.13 301.679 105.69C299.899 104.7 297.849 104.29 296.039 103.34C293.179 101.84 291.089 99.05 288.089 97.87C287.089 97.48 285.929 97.29 284.979 97.78C284.029 98.27 283.519 99.65 284.209 100.47C284.089 99.51 282.839 98.99 281.959 99.38C281.079 99.78 280.629 100.83 280.689 101.79C280.749 102.75 281.229 103.64 281.779 104.44C283.599 107.05 286.389 108.97 289.479 109.74L296.379 109.2L302.039 113.39L306.229 120.06L298.629 129.93L301.339 131.95Z" fill="#263238"/>
<path d="M258.15 92.6C257.28 79.16 245.69 68.98 232.25 69.84C218.81 70.71 208.63 82.3 209.49 95.74C210.12 105.47 216.37 113.49 224.87 116.85C225.06 119.73 225.27 122.99 225.27 122.99L246.59 121.61C246.59 121.61 246.5 118.16 246.35 115.08C253.93 110.53 258.76 102.02 258.15 92.6Z" fill="#FFB429"/>
<path d="M238.88 122.01C238.88 122.01 238.88 121.91 238.88 121.71C238.89 121.5 238.9 121.21 238.92 120.83C238.96 120.05 239.03 118.91 239.15 117.43C239.27 115.96 239.44 114.15 239.78 112.08C240.12 110.01 240.62 107.65 241.55 105.17C242.02 103.93 242.57 102.65 243.32 101.4C243.71 100.79 244.2 100.18 244.89 99.8C245.58 99.42 246.46 99.36 247.2 99.73C247.57 99.91 247.89 100.24 248.03 100.64C248.19 101.04 248.17 101.5 248.01 101.9C247.68 102.69 247 103.28 246.24 103.64C244.67 104.31 242.81 104.28 241.16 103.61C239.5 102.94 238.13 101.52 237.46 99.77C237.14 98.9 236.93 97.94 237.13 96.97C237.3 96.01 238.16 95.11 239.23 95.14C239.76 95.14 240.26 95.47 240.52 95.92C240.79 96.36 240.89 96.9 240.81 97.41C240.64 98.44 239.96 99.25 239.26 99.94C237.81 101.31 235.77 102.15 233.7 101.95C231.64 101.76 229.73 100.53 228.77 98.75C228.27 97.88 228.09 96.79 228.42 95.81C228.58 95.33 228.92 94.87 229.42 94.67C229.9 94.45 230.47 94.5 230.93 94.71C231.39 94.92 231.78 95.28 232.03 95.71C232.28 96.14 232.42 96.61 232.49 97.09C232.62 98.04 232.55 98.99 232.3 99.89C231.82 101.69 230.66 103.26 229.13 104.19C227.61 105.13 225.81 105.47 224.14 105.21C223.32 105.08 222.47 104.81 221.87 104.19C221.29 103.58 221.07 102.57 221.58 101.86C221.83 101.51 222.24 101.31 222.64 101.25C223.04 101.2 223.45 101.25 223.82 101.4C224.57 101.71 225.05 102.35 225.42 102.97C226.12 104.25 226.69 105.5 227.27 106.69C229.53 111.47 231.17 115.42 232.28 118.16C232.83 119.53 233.24 120.6 233.52 121.33C233.65 121.69 233.75 121.96 233.83 122.16C233.9 122.35 233.93 122.45 233.93 122.45C233.93 122.45 233.88 122.36 233.81 122.17C233.73 121.97 233.62 121.7 233.47 121.35C233.17 120.62 232.73 119.56 232.18 118.2C231.04 115.48 229.37 111.54 227.09 106.78C226.51 105.6 225.92 104.33 225.24 103.08C224.88 102.48 224.41 101.88 223.75 101.61C223.11 101.34 222.24 101.4 221.81 101.99C221.39 102.57 221.57 103.47 222.08 104C222.61 104.56 223.4 104.82 224.2 104.94C225.8 105.19 227.55 104.86 229 103.95C230.46 103.05 231.58 101.54 232.03 99.81C232.27 98.95 232.33 98.02 232.21 97.12C232.09 96.24 231.66 95.33 230.82 94.97C230.42 94.79 229.95 94.75 229.55 94.93C229.15 95.1 228.86 95.47 228.71 95.9C228.42 96.77 228.57 97.78 229.05 98.6C229.96 100.29 231.79 101.46 233.75 101.65C235.72 101.84 237.69 101.03 239.08 99.72C239.76 99.06 240.4 98.28 240.55 97.36C240.62 96.92 240.53 96.45 240.3 96.07C240.07 95.69 239.68 95.44 239.25 95.43C238.82 95.42 238.39 95.6 238.07 95.9C237.74 96.19 237.54 96.6 237.45 97.03C237.26 97.9 237.45 98.83 237.76 99.66C238.39 101.34 239.71 102.7 241.3 103.34C242.87 103.99 244.68 104.01 246.16 103.39C246.88 103.05 247.52 102.5 247.81 101.8C248.12 101.1 247.79 100.26 247.12 99.95C246.47 99.62 245.65 99.67 245.03 100.01C244.39 100.36 243.92 100.93 243.54 101.52C242.8 102.74 242.24 104.02 241.78 105.24C240.84 107.7 240.33 110.04 239.98 112.11C239.63 114.18 239.44 115.97 239.31 117.44C239.19 118.9 239.09 120.04 239.03 120.83C239 121.21 238.97 121.5 238.96 121.71C238.9 121.91 238.88 122.01 238.88 122.01Z" fill="#263238"/>
<path d="M245.211 125.66L226.9 126.84C226.14 126.89 225.491 126.31 225.441 125.55C225.391 124.79 225.97 124.14 226.73 124.09L245.04 122.91C245.8 122.86 246.451 123.44 246.501 124.2C246.551 124.96 245.971 125.61 245.211 125.66Z" fill="#263238"/>
<path d="M245.289 126.86L226.979 128.04C226.219 128.09 225.649 128.74 225.689 129.5C225.739 130.26 226.389 130.83 227.149 130.79L229.159 130.66L232.149 135.56C232.489 136.12 233.119 136.45 233.769 136.4L240.309 135.98C240.969 135.94 241.549 135.53 241.819 134.92L244.079 129.69L245.449 129.6C246.209 129.55 246.779 128.9 246.739 128.14C246.699 127.39 246.049 126.81 245.289 126.86Z" fill="#263238"/>
<g opacity="0.2">
<path d="M217.19 79.68C218.73 78.06 220.37 76.89 221.85 76.13C223.33 75.36 224.62 74.95 225.53 74.8C226.44 74.64 226.97 74.7 227.03 74.89C227.16 75.32 225.36 76.1 222.98 77.92C220.61 79.7 217.69 82.75 216.08 86.88C214.48 91.02 214.58 95.24 215.13 98.15C215.66 101.1 216.47 102.88 216.07 103.11C215.9 103.21 215.47 102.9 214.9 102.17C214.33 101.44 213.65 100.27 213.08 98.71C212.5 97.15 212.08 95.17 212.03 92.94C211.98 90.71 212.35 88.23 213.28 85.8" fill="white"/>
</g>
<g opacity="0.2">
<path d="M232.951 75.56C231.411 75.65 230.021 75.31 229.811 74.51C229.721 74.11 229.971 73.66 230.511 73.29C231.041 72.92 231.851 72.63 232.781 72.58C233.701 72.53 234.541 72.71 235.111 73.02C235.691 73.33 235.991 73.74 235.951 74.15" fill="white"/>
</g>
<path d="M241.53 135.38C241.51 135.43 241.04 135.25 240.25 135.07C239.46 134.9 238.34 134.77 237.12 134.88C235.89 135 234.82 135.33 234.08 135.65C233.34 135.97 232.9 136.23 232.88 136.19C232.86 136.16 233.26 135.83 234 135.46C234.74 135.09 235.84 134.71 237.1 134.59C238.36 134.47 239.52 134.64 240.31 134.87C241.09 135.1 241.54 135.35 241.53 135.38Z" fill="#455A64"/>
<path d="M244.151 129.76C244.161 129.84 240.851 130.12 236.771 130.39C232.691 130.65 229.371 130.8 229.371 130.72C229.361 130.64 232.671 130.36 236.751 130.09C240.831 129.82 244.141 129.68 244.151 129.76Z" fill="#455A64"/>
<path d="M243.141 132.01C243.141 132.05 242.461 132.17 241.351 132.31C240.241 132.45 238.701 132.62 236.991 132.75C235.281 132.88 233.741 132.96 232.621 133C231.501 133.03 230.811 133.02 230.801 132.98C230.801 132.94 231.491 132.87 232.601 132.78C233.811 132.69 235.301 132.57 236.961 132.45C238.621 132.32 240.111 132.19 241.321 132.1C242.441 132.01 243.141 131.96 243.141 132.01Z" fill="#455A64"/>
<path d="M111.301 254.48L115.281 260.85C115.281 260.85 132.241 245.24 149.071 249.65C149.061 249.65 133.941 236.83 111.301 254.48Z" fill="#06A5B8"/>
<path d="M149.061 249.65C149.061 249.65 161.511 236.13 179.771 239.21L184.751 239.96L183.161 237.08C183.161 237.09 151.401 226.21 149.061 249.65Z" fill="#06A5B8"/>
<path d="M122.78 204.06C122.78 204.06 97.8405 199.77 81.4805 208.62L107.45 257.52C107.45 257.52 128.71 237.03 149.05 249.65L122.78 204.06Z" fill="#F5F5F5"/>
<path d="M122.781 204.06C122.781 204.06 122.831 204.12 122.911 204.26C123.001 204.41 123.131 204.62 123.281 204.88C123.621 205.45 124.101 206.26 124.721 207.31C125.981 209.47 127.811 212.6 130.131 216.57C134.781 224.58 141.381 235.97 149.251 249.54C149.311 249.65 149.271 249.78 149.171 249.84C149.101 249.88 149.011 249.88 148.941 249.84C146.121 248.11 142.881 246.79 139.381 246.17C137.631 245.88 135.821 245.76 133.991 245.8C132.161 245.87 130.311 246.11 128.471 246.49C121.101 248.12 113.951 252.12 107.841 257.5L107.631 257.7C107.531 257.8 107.371 257.79 107.281 257.69C107.261 257.67 107.251 257.65 107.241 257.63C97.5909 239.43 88.6509 222.56 81.3109 208.71C81.2609 208.61 81.2909 208.49 81.3909 208.44H81.4009C87.1209 205.48 92.9209 204.2 98.0209 203.52C103.141 202.86 107.641 202.84 111.321 202.94C115.001 203.06 117.871 203.36 119.821 203.6C120.791 203.72 121.541 203.83 122.041 203.91C122.281 203.95 122.461 203.99 122.611 204.01C122.721 204.04 122.791 204.06 122.781 204.06C122.781 204.06 122.711 204.06 122.581 204.04C122.441 204.02 122.251 204 122.011 203.97C121.511 203.91 120.761 203.81 119.791 203.72C117.841 203.52 114.971 203.26 111.301 203.17C107.631 203.1 103.141 203.15 98.0509 203.84C92.9809 204.55 87.2209 205.85 81.5809 208.79L81.6609 208.51C89.0209 222.35 97.9909 239.2 107.671 257.39L107.281 257.33L107.501 257.12C110.581 254.36 113.941 252.05 117.441 250.14C120.951 248.25 124.621 246.8 128.361 246C130.231 245.61 132.111 245.38 133.971 245.3C135.831 245.27 137.671 245.39 139.451 245.69C143.011 246.33 146.311 247.68 149.161 249.44L148.851 249.74C141.061 236.15 134.531 224.76 129.941 216.74C127.661 212.74 125.861 209.58 124.631 207.4C124.031 206.33 123.561 205.5 123.231 204.92C123.081 204.65 122.961 204.44 122.881 204.28C122.821 204.15 122.781 204.07 122.781 204.06Z" fill="#06A5B8"/>
<path d="M161.98 194.03C161.98 194.03 143.12 182.01 123.1 204.06L149.38 249.65C149.38 249.65 154.74 231.15 186.12 237.58L161.98 194.03Z" fill="#F5F5F5"/>
<path d="M161.98 194.03C161.98 194.03 162.03 194.09 162.11 194.22C162.2 194.37 162.31 194.56 162.46 194.81C162.77 195.35 163.21 196.13 163.78 197.13C164.94 199.19 166.62 202.18 168.75 205.97C173.01 213.62 179.08 224.49 186.31 237.48C186.37 237.59 186.33 237.72 186.23 237.78C186.19 237.8 186.14 237.81 186.09 237.8H186.08C184.55 237.55 182.99 237.29 181.41 237.03C180.62 236.87 179.81 236.83 179 236.76C178.19 236.7 177.37 236.63 176.54 236.56C175.71 236.46 174.88 236.48 174.04 236.5C173.2 236.51 172.35 236.52 171.5 236.53C170.65 236.55 169.8 236.7 168.94 236.78C168.08 236.89 167.21 236.93 166.36 237.17C165.51 237.36 164.65 237.56 163.78 237.75C162.94 238.04 162.1 238.34 161.26 238.63C160.41 238.92 159.64 239.39 158.81 239.76C158.39 239.94 158.01 240.18 157.63 240.43L156.48 241.17C155.72 241.68 155.04 242.3 154.33 242.88C153.7 243.55 152.99 244.15 152.44 244.9C151.26 246.32 150.25 247.96 149.64 249.7V249.71C149.59 249.84 149.45 249.91 149.32 249.86C149.26 249.84 149.22 249.8 149.19 249.75C148.86 249.17 148.49 248.54 148.13 247.91C138.84 231.76 130.18 216.72 122.94 204.14C122.89 204.06 122.91 203.96 122.97 203.89C127.41 199.04 132.32 195.35 137.21 193.19C142.09 190.98 146.84 190.43 150.64 190.67C154.46 190.91 157.35 191.84 159.23 192.59C160.17 192.97 160.87 193.33 161.33 193.58C161.55 193.71 161.71 193.8 161.84 193.88C161.93 193.99 161.99 194.03 161.98 194.03C161.98 194.03 161.91 194 161.8 193.94C161.67 193.87 161.49 193.78 161.27 193.67C160.8 193.44 160.1 193.1 159.15 192.74C157.26 192.02 154.38 191.14 150.59 190.94C146.83 190.73 142.13 191.31 137.31 193.53C132.49 195.69 127.64 199.38 123.25 204.2L123.28 203.96C130.53 216.52 139.22 231.56 148.53 247.69C148.89 248.32 149.25 248.95 149.59 249.53L149.14 249.58C149.79 247.71 150.82 246.07 152.03 244.6C152.6 243.83 153.32 243.21 153.97 242.53C154.7 241.94 155.4 241.3 156.18 240.79L157.36 240.04C157.75 239.78 158.14 239.54 158.56 239.35C159.4 238.97 160.19 238.5 161.06 238.2C161.92 237.9 162.78 237.6 163.63 237.31C164.51 237.11 165.38 236.92 166.25 236.72C167.11 236.48 168 236.44 168.86 236.33C169.73 236.25 170.59 236.1 171.46 236.08C172.32 236.07 173.18 236.06 174.03 236.05C174.88 236.03 175.73 236.02 176.56 236.12C177.39 236.19 178.22 236.26 179.04 236.32C179.86 236.39 180.68 236.43 181.47 236.6C183.06 236.87 184.63 237.13 186.17 237.39L185.93 237.71C178.77 224.71 172.77 213.82 168.55 206.16C166.46 202.34 164.82 199.33 163.68 197.25C163.13 196.23 162.71 195.44 162.41 194.89C162.27 194.63 162.17 194.43 162.09 194.28C162.01 194.11 161.98 194.03 161.98 194.03Z" fill="#06A5B8"/>
<path d="M88.5117 185.12L116.632 239.27C116.632 239.27 139.492 238.27 149.162 249.41L123.102 204.07C123.102 204.06 107.822 185.12 88.5117 185.12Z" fill="#F5F5F5"/>
<path d="M88.5117 185.12C88.5117 185.12 88.7417 185.12 89.2217 185.14C89.7317 185.16 90.4517 185.19 91.3917 185.23C91.6317 185.24 91.8917 185.25 92.1517 185.27C92.4117 185.31 92.6817 185.36 92.9717 185.41C93.5517 185.51 94.1717 185.61 94.8517 185.72C95.5417 185.8 96.2417 186.03 97.0017 186.23C97.7517 186.46 98.5917 186.61 99.4117 186.94C106.132 189.18 115.152 194.6 123.252 203.93L123.262 203.95V203.96C130.682 216.84 139.662 232.44 149.362 249.28C149.432 249.4 149.392 249.55 149.272 249.62C149.172 249.68 149.052 249.66 148.972 249.58L148.962 249.57C148.612 249.22 148.232 248.85 147.862 248.47C145.772 246.44 143.292 244.84 140.662 243.71C138.042 242.55 135.342 241.66 132.622 241.07C127.182 239.85 121.762 239.39 116.632 239.49H116.622C116.532 239.49 116.452 239.44 116.412 239.36C108.212 223.46 101.212 209.88 96.2417 200.25C93.7917 195.48 91.8517 191.69 90.5017 189.07C89.8517 187.79 89.3417 186.8 88.9917 186.11C88.8317 185.79 88.7017 185.54 88.6117 185.35C88.5517 185.2 88.5117 185.11 88.5117 185.12C88.5217 185.12 88.5717 185.21 88.6617 185.39C88.7617 185.58 88.9017 185.84 89.0817 186.17C89.4517 186.87 89.9817 187.87 90.6617 189.16C92.0417 191.78 94.0317 195.57 96.5417 200.35C101.542 209.91 108.592 223.39 116.852 239.17L116.632 239.05C121.812 238.94 127.252 239.39 132.742 240.62C135.492 241.21 138.222 242.11 140.882 243.28C143.552 244.43 146.082 246.05 148.222 248.13C148.612 248.52 148.992 248.9 149.352 249.26L148.952 249.55C139.282 232.69 130.322 217.08 122.922 204.18L122.942 204.21C118.982 199.56 114.662 195.91 110.632 193.07C106.562 190.27 102.682 188.32 99.3417 187.19C98.5217 186.85 97.7017 186.69 96.9517 186.46C96.1917 186.25 95.4917 186.01 94.8117 185.92C94.1417 185.8 93.5217 185.69 92.9417 185.58C92.6617 185.53 92.3817 185.48 92.1217 185.43C91.8617 185.4 91.6217 185.39 91.3917 185.37C89.6917 185.21 88.8917 185.15 88.5117 185.12Z" fill="#06A5B8"/>
<path d="M176.3 338.7L176.9 339.7C177.58 340.83 178.56 341.73 179.74 342.32L180.79 342.84L179.79 343.44C178.66 344.12 177.76 345.1 177.17 346.28L176.65 347.33L176.05 346.33C175.37 345.2 174.39 344.3 173.21 343.71L172.16 343.19L173.16 342.59C174.29 341.91 175.19 340.93 175.78 339.75L176.3 338.7Z" fill="#68AC23"/>
<path d="M120.861 132.43L121.461 133.43C122.141 134.56 123.121 135.46 124.301 136.05L125.351 136.57L124.351 137.17C123.221 137.85 122.321 138.83 121.731 140.01L121.211 141.06L120.611 140.06C119.931 138.93 118.951 138.03 117.771 137.44L116.721 136.92L117.721 136.32C118.851 135.64 119.751 134.66 120.341 133.48L120.861 132.43Z" fill="#68AC23"/>
<path d="M377.441 168.02L378.041 169.02C378.721 170.15 379.701 171.05 380.881 171.64L381.931 172.16L380.931 172.76C379.801 173.44 378.901 174.42 378.311 175.6L377.791 176.65L377.191 175.65C376.511 174.52 375.531 173.62 374.351 173.03L373.301 172.51L374.301 171.91C375.431 171.23 376.331 170.25 376.921 169.07L377.441 168.02Z" fill="#68AC23"/>
<path d="M347.14 351.65L347.74 352.65C348.42 353.78 349.4 354.68 350.58 355.27L351.63 355.79L350.63 356.39C349.5 357.07 348.6 358.05 348.01 359.23L347.49 360.28L346.89 359.28C346.21 358.15 345.23 357.25 344.05 356.66L343 356.14L344 355.54C345.13 354.86 346.03 353.88 346.62 352.7L347.14 351.65Z" fill="#68AC23"/>
<path d="M352.91 390.24L353.2 390.36C353.52 390.49 353.88 390.53 354.22 390.46L354.53 390.4L354.41 390.69C354.28 391.01 354.24 391.37 354.31 391.71L354.37 392.02L354.08 391.9C353.76 391.77 353.4 391.73 353.06 391.8L352.75 391.86L352.87 391.57C353 391.25 353.04 390.89 352.97 390.55L352.91 390.24Z" fill="#68AC23"/>
<path d="M370.361 129.31L370.651 129.43C370.971 129.56 371.331 129.6 371.671 129.53L371.981 129.47L371.861 129.76C371.731 130.08 371.691 130.44 371.761 130.78L371.821 131.09L371.531 130.97C371.211 130.84 370.851 130.8 370.511 130.87L370.201 130.93L370.321 130.64C370.451 130.32 370.491 129.96 370.421 129.62L370.361 129.31Z" fill="#68AC23"/>
<path d="M132.131 105.49L132.421 105.61C132.741 105.74 133.101 105.78 133.441 105.71L133.751 105.65L133.631 105.94C133.501 106.26 133.461 106.62 133.531 106.96L133.591 107.27L133.301 107.15C132.981 107.02 132.621 106.98 132.281 107.05L131.971 107.11L132.091 106.82C132.221 106.5 132.261 106.14 132.191 105.8L132.131 105.49Z" fill="#68AC23"/>
<path d="M161.531 308.66L161.821 308.78C162.141 308.91 162.501 308.95 162.841 308.88L163.151 308.82L163.031 309.11C162.901 309.43 162.861 309.79 162.931 310.13L162.991 310.44L162.701 310.32C162.381 310.19 162.021 310.15 161.681 310.22L161.371 310.28L161.491 309.99C161.621 309.67 161.661 309.31 161.591 308.97L161.531 308.66Z" fill="#68AC23"/>
<path d="M193.411 387.19C193.411 387.19 193.321 387.29 193.141 387.48C192.941 387.68 192.661 387.95 192.311 388.31C191.561 389.04 190.471 390.1 189.081 391.46C186.241 394.2 182.161 398.14 177.091 403.02L177.141 402.9C177.711 415.45 178.481 432.5 179.351 451.47L179.371 451.9L179.011 451.66C177.641 450.74 176.161 449.76 174.681 448.77C164.811 442.16 155.461 435.9 147.231 430.4L147.171 430.36L147.151 430.3C143.061 418.07 139.601 407.76 137.161 400.48C135.961 396.86 135.021 394 134.361 392.02C134.051 391.05 133.801 390.3 133.631 389.77C133.551 389.53 133.501 389.34 133.451 389.19C133.411 389.06 133.391 388.99 133.401 388.99C133.411 388.99 133.431 389.05 133.481 389.18C133.531 389.32 133.601 389.51 133.691 389.75C133.871 390.27 134.141 391.02 134.471 391.98C135.151 393.95 136.131 396.8 137.371 400.41C139.841 407.68 143.351 417.97 147.511 430.18L147.431 430.08C155.661 435.58 165.021 441.82 174.901 448.42C176.381 449.41 177.851 450.39 179.231 451.31L178.891 451.5C178.081 432.53 177.351 415.48 176.811 402.93V402.86L176.861 402.81C181.961 397.97 186.081 394.06 188.941 391.35C190.361 390.02 191.461 388.98 192.231 388.26C192.601 387.92 192.881 387.66 193.091 387.47C193.301 387.27 193.411 387.19 193.411 387.19Z" fill="#68AC23"/>
<path d="M180.631 445.75L180.541 448.59L182.831 450.26L180.111 451.05L179.221 453.74L177.621 451.4L174.791 451.39L176.531 449.15L175.661 446.45L178.331 447.41L180.631 445.75Z" fill="#68AC23"/>
<path d="M147.57 426.54L147.63 428.37L149.17 429.37L147.44 429.98L146.97 431.76L145.85 430.31L144.02 430.41L145.05 428.89L144.39 427.18L146.15 427.7L147.57 426.54Z" fill="#68AC23"/>
<path d="M133.33 385.61L134.71 387.39L136.96 387.26L135.7 389.12L136.52 391.21L134.36 390.59L132.62 392.02L132.54 389.77L130.65 388.56L132.76 387.79L133.33 385.61Z" fill="#68AC23"/>
<path d="M192.02 383.84L193.41 385.61L195.65 385.48L194.39 387.34L195.21 389.44L193.05 388.82L191.31 390.24L191.24 387.99L189.34 386.78L191.46 386.01L192.02 383.84Z" fill="#68AC23"/>
<path d="M176.62 400.98L177.5 402.12L178.93 402.03L178.13 403.22L178.65 404.56L177.27 404.16L176.16 405.07L176.11 403.64L174.9 402.86L176.25 402.37L176.62 400.98Z" fill="#68AC23"/>
<path d="M123.69 325.35C134.703 325.35 143.63 316.423 143.63 305.41C143.63 294.397 134.703 285.47 123.69 285.47C112.677 285.47 103.75 294.397 103.75 305.41C103.75 316.423 112.677 325.35 123.69 325.35Z" fill="#FF9624"/>
<g opacity="0.3">
<path d="M121.1 311.63C121.1 313.43 119.64 314.88 117.85 314.88C116.06 314.88 114.6 313.42 114.6 311.63C114.6 309.83 116.06 308.38 117.85 308.38C119.64 308.38 121.1 309.84 121.1 311.63Z" fill="white"/>
</g>
<g opacity="0.3">
<path d="M116.491 302.25C116.491 303.3 115.641 304.14 114.601 304.14C113.551 304.14 112.711 303.29 112.711 302.25C112.711 301.2 113.561 300.36 114.601 300.36C115.641 300.36 116.491 301.2 116.491 302.25Z" fill="white"/>
</g>
<path d="M104.341 310.26C104.431 310.61 87.2707 327.07 91.6907 330.58C96.1107 334.09 114.721 325.09 130.581 312.28C146.441 299.47 160.931 283.91 156.961 279.79C152.991 275.67 133.171 287.86 133.171 287.86L135.541 289.37C135.541 289.37 147.521 281.68 151.321 284.67C155.111 287.65 144.301 299.31 129.051 310.44C113.801 321.57 99.0607 329.39 96.7707 326.34C94.4807 323.29 105.281 313.12 105.281 313.12L104.341 310.26Z" fill="#FF9624"/>
<g opacity="0.3">
<path d="M104.341 310.26C104.431 310.61 87.2707 327.07 91.6907 330.58C96.1107 334.09 114.721 325.09 130.581 312.28C146.441 299.47 160.931 283.91 156.961 279.79C152.991 275.67 133.171 287.86 133.171 287.86L135.541 289.37C135.541 289.37 147.521 281.68 151.321 284.67C155.111 287.65 144.301 299.31 129.051 310.44C113.801 321.57 99.0607 329.39 96.7707 326.34C94.4807 323.29 105.281 313.12 105.281 313.12L104.341 310.26Z" fill="black"/>
</g>
<g opacity="0.3">
<path d="M112.701 291.36C112.861 291.55 111.511 292.7 109.981 295C108.451 297.27 106.851 300.86 106.761 305.02C106.681 309.19 108.141 312.84 109.581 315.17C111.021 317.53 112.321 318.73 112.151 318.92C112.051 319.06 110.451 318.13 108.671 315.78C107.791 314.61 106.911 313.08 106.251 311.24C105.591 309.41 105.181 307.26 105.221 304.99C105.281 302.72 105.771 300.59 106.501 298.79C107.231 296.98 108.171 295.48 109.101 294.35C110.971 292.08 112.611 291.22 112.701 291.36Z" fill="white"/>
</g>
<path d="M354.849 130.465C361.409 124.179 361.631 113.766 355.345 107.207C349.059 100.647 338.645 100.426 332.086 106.712C325.526 112.998 325.305 123.411 331.591 129.97C337.877 136.53 348.29 136.751 354.849 130.465Z" fill="#90D947"/>
<g opacity="0.4">
<path d="M348.831 112.3C348.871 110.82 350.091 109.65 351.581 109.68C353.061 109.72 354.231 110.94 354.201 112.43C354.161 113.91 352.941 115.08 351.451 115.05C349.971 115.01 348.791 113.78 348.831 112.3Z" fill="black"/>
</g>
<g opacity="0.4">
<path d="M354.19 118.56C354.21 117.7 354.93 117.02 355.79 117.04C356.65 117.06 357.33 117.78 357.31 118.64C357.29 119.5 356.57 120.18 355.71 120.16C354.86 120.14 354.17 119.42 354.19 118.56Z" fill="black"/>
</g>
<g opacity="0.4">
<path d="M352.1 123.36C352.42 123.37 352.67 123.63 352.66 123.95C352.65 124.27 352.39 124.52 352.07 124.51C351.75 124.5 351.5 124.24 351.51 123.92C351.52 123.6 351.78 123.35 352.1 123.36Z" fill="black"/>
</g>
</svg>
