<svg width="241" height="241" viewBox="0 0 241 241" fill="none" xmlns="http://www.w3.org/2000/svg">
<path d="M120.5 241C187.05 241 241 187.051 241 120.5C241 53.9497 187.05 0 120.5 0C53.9497 0 0 53.9497 0 120.5C0 187.051 53.9497 241 120.5 241Z" fill="url(#paint0_linear_4040_11017)"/>
<path d="M120.5 59.4059C95.5565 59.4059 75.3125 79.6499 75.3125 104.593C75.3125 129.054 94.472 148.937 119.898 149.66C120.259 149.66 120.741 149.66 120.982 149.66C121.223 149.66 121.584 149.66 121.826 149.66C121.946 149.66 122.067 149.66 122.067 149.66C146.408 148.816 165.567 129.054 165.688 104.593C165.688 79.6499 145.444 59.4059 120.5 59.4059Z" fill="#E9E9E9"/>
<path d="M202.206 209.068C180.757 228.83 152.078 241 120.507 241C88.9356 241 60.2566 228.83 38.8076 209.068C41.6996 198.102 49.5321 188.101 60.9796 180.389C93.8761 158.458 147.378 158.458 180.034 180.389C191.602 188.101 199.314 198.102 202.206 209.068Z" fill="#E9E9E9"/>
<defs>
<linearGradient id="paint0_linear_4040_11017" x1="120.5" y1="0" x2="120.5" y2="241" gradientUnits="userSpaceOnUse">
<stop stop-color="#04A4B9"/>
<stop offset="1" stop-color="#E6C619"/>
</linearGradient>
</defs>
</svg>
